<?xml version="1.0" encoding="utf-8"?>
<!-- Generator: Adobe Illustrator 18.1.1, SVG Export Plug-In . SVG Version: 6.00 Build 0)  -->
<svg version="1.1" id="Capa_5" xmlns="http://www.w3.org/2000/svg" xmlns:xlink="http://www.w3.org/1999/xlink" x="0px" y="0px"
	 viewBox="0 0 1400 980" enable-background="new 0 0 1400 980" xml:space="preserve">
<g>
	<path fill="none" stroke="#000000" stroke-width="3" stroke-linejoin="round" stroke-miterlimit="10" d="M1261.9,329.1"/>
	<path fill="none" stroke="#000000" stroke-width="3" stroke-linejoin="round" stroke-miterlimit="10" d="M1261.9,329.1"/>
	<path fill="#151D38" d="M571,840.3c-0.1-0.4-0.3-0.8-0.3-1.1c-0.2-2.1-0.1-2.2,2-2.2c7.9,0,15.8,0,23.8,0c2.4,0,2.1-0.1,2.1-2.1
		c0-4.7,0-9.4,0-14.2c0-1,0-1.9,0.3-2.9c0.7-2.9,2.9-4.9,6-4.9c3.9-0.1,7.8,0,11.8,0c1.1,0,2.2-0.2,3.3-0.6
		c10.1-4.2,20.2-8.4,30.4-12.5c2.1-0.9,1.8-0.8,1.7-2.8c-0.3-3.6-0.5-7.2-0.7-10.8c-0.1-2-0.2-2-2.1-2c-1,0-1.9,0-2.9-0.1
		c-0.8-0.1-1.3-0.6-1.3-1.4c0-0.8,0.5-1.3,1.3-1.4c1.1,0,2.2,0,3.4,0c0.8,0,1.2-0.3,1.1-1.1c-0.2-1.7-0.3-3.3-0.4-5
		c-0.1-0.7-0.4-1-1.1-1c-0.9,0-1.8,0-2.6,0c-0.9,0-1.6-0.2-1.7-1.2c-0.1-1.1,0.7-1.5,1.7-1.6c0.8-0.1,1.6,0,2.4,0c0.7,0,1-0.3,1-1
		c-0.1-1.5-0.2-3-0.2-4.6c0-1-0.5-1.5-1.5-1.5c-0.7,0-1.4,0-2.2-0.1c-0.7-0.1-1.2-0.5-1.2-1.3c0-0.7,0.3-1.2,1-1.4
		c0.5-0.1,0.9-0.1,1.4-0.2c2-0.1,2-0.1,1.9-2.3c-0.3-4-0.6-8-0.9-12c0-0.5-0.1-1-0.1-1.4c0.1-1.5,0.3-1.8,1.9-1.9
		c3.2-0.2,3.2-0.2,3-3.5c-0.7-8.7-1.5-17.4-2.2-26c-0.7-8.4-1.4-16.7-2.1-25.1c-0.7-8.9-1.5-17.8-2.2-26.8
		c-0.5-6.6-1.1-13.2-1.6-19.8c-0.1-0.6-0.1-1.3-0.2-1.9c-0.1-0.6-0.4-1-1.1-1c-0.6,0-1.1,0-1.7,0c-9.1,0-18.2,0-27.4,0
		c-0.6,0-1.1,0-1.7,0c-1.2,0-1.8-0.6-1.8-1.7c0-0.8,0-1.6,0-2.4c0-45.9,0-91.8,0-137.8c0-1.1,0.5-2.8-0.3-3.2
		c-1-0.5-1.9,1.1-2.9,1.7c-0.2,0.1-0.4,0.3-0.6,0.4c-0.7,0.6-1.7,1.2-2.1,1.9c-0.4,0.9,0.9,1.3,1.4,2c0.5,0.8,0.5,1.6-0.1,2.2
		c-1.8,1.8-3.7,3.5-5.6,5.3c-0.8,0.8-1.7,0.7-2.6-0.1c-1.7-1.4-1.7-1.4-3.2,0.3c-8.4,9.7-14.6,20.6-18.8,32.6
		c-4.4,12.5-6.4,25.4-6.9,38.6c-0.7,18.2,1.7,36,5.6,53.8c0.5,2.2,0.5,2.2,2.8,2.1c0.4,0,0.8,0,1.2,0c1.6,0.1,1.9,0.3,2.1,2
		c0.2,3,0.3,6.1,0.5,9.1c0.1,1.9,0.2,3.8,0.3,5.7c0,1.1,0.5,1.7,1.6,2c3.3,0.8,6.5,1.8,9.7,2.8c3.6,1.1,5.9,4.2,5.9,7.9
		c0,3.8-2.4,7.1-5.9,8.1c-2.1,0.6-4.1,0.2-6.1-0.4c-2.9-0.9-2.7-1-2.6,2.1c0.1,5.4,0.4,10.9,0.5,16.3c0.1,3.5-1.2,6.4-4.4,8.2
		c-5.4,3-11.8-0.6-12.3-6.8c-0.2-2.2-0.1-4.5-0.2-6.7c0-0.3,0-0.8-0.3-0.8c-0.3,0-0.4,0.4-0.5,0.7c-1.8,4.9-3.5,9.8-5.3,14.7
		c-0.4,1.2-0.9,2.4-1.8,3.4c-2.3,2.6-5.9,3.6-9.2,2.4c-3.4-1.2-5.3-3.8-5.6-7.4c0-0.4,0-0.8,0-1.2c0-0.2-0.1-0.5-0.2-0.6
		c-0.3-0.2-0.4,0.2-0.5,0.3c-0.4,0.6-0.8,1.2-1.3,1.8c-2.8,3.8-7.8,4.7-11.7,2c-3.9-2.6-4.8-7.6-2.1-11.6c1.4-2.1,2.9-4.2,4.4-6.3
		c0.6-0.8,0.4-1.2-0.6-1.1c-1.5,0.1-2.9,0.1-4.2-0.5c-3.2-1.3-5-3.7-5.3-7.1c-0.3-3.3,1-6,3.8-7.7c5.5-3.4,11-6.8,16.6-10
		c1.4-0.8,2.1-1.5,1.7-3.4c-0.8-4.2-1.2-8.5-1.8-12.8c-0.3-2.5-0.3-2.6,2.2-3.2c1-0.2,0.7-0.8,0.6-1.4c-1-4.9-1.9-9.9-2.7-14.9
		c-2.5-15.9-3.4-31.9-2.4-48c1-15.6,4-30.7,9.6-45.3c1.7-4.3,3.6-8.5,5.7-12.7c0.2-0.5,0.8-1,0.5-1.5c-0.4-0.5-1,0-1.5,0.1
		c-4.3,1-8.6,1.8-13,2.1c-13.3,1.1-26.3-0.2-38.7-5.9c-2.3-1-4.3-2.4-6.4-3.7c-1.4-0.9-1.9-2.1-1.9-3.8c0.1-10.2,0-20.3,0-30.5
		c0-12.3,0-24.6,0-37c0-2.1,0-2.1-1.9-2.8c-4.3-1.4-6.8-4.8-7-9.3c-0.1-1.4,0-2.9,0-4.3c0.2-5.7,4.3-9.7,9.9-9.9c0.7,0,1.4,0,2.2,0
		c43.6,0,87.2,0,130.8,0c0.6,0,1.1,0,1.7,0c3.2,0,2.8,0.2,2.8-2.8c0-3,0-5.9,0-8.9c0-1.9,0.4-2.3,2.2-2.3c2.2,0,4.5,0,6.7,0
		c1,0,1.6-0.2,2.1-1.1c8.8-15.4,22.7-23,39.6-26.3c1.1-0.2,2.2-0.3,3.3-0.5c0.6-0.1,0.8-0.5,0.3-1c-0.4-0.5-0.9-0.9-1.3-1.4
		c-3.3-4.1-3.8-9.9-1.2-14.4c2.6-4.6,7.8-7.2,12.9-6.5c5.2,0.7,9.6,4.5,10.8,9.6c1.1,4.4,0.2,8.4-2.8,11.9c-0.3,0.3-0.6,0.6-0.8,0.9
		c-0.6,0.6-0.3,1,0.4,1.1c2,0.3,4,0.6,5.9,1c10.4,2.3,19.8,6.8,27.7,14c3.6,3.3,6.7,7.1,9,11.5c0.6,1.1,1.3,1.5,2.4,1.4
		c1.8-0.1,3.7,0,5.5,0c2.8,0,2.9,0.2,2.9,3.1c0,3,0,6.1,0,9.1c0,1.7,0,1.7,1.7,1.7c12.7,0,25.4,0,38.2,0c0.9,0,1.5-0.2,2.1-0.9
		c2.5-3.1,7.4-3.4,10.3-0.7c0.7,0.6,1.1,0.6,1.8,0c3.5-2.5,6.3-2.6,9.6,0c0.9,0.7,1.3,0.4,2-0.1c2.2-1.8,4.7-2.2,7.4-1.2
		c0.1,0,0.2,0,0.2,0.1c0.9,0.6,1.8,1.6,2.8,1.6c0.8,0,1.7-1.1,2.6-1.6c2.7-1.3,6.1-0.8,8.2,1.4c1,1.1,2,1.3,3.3,1.3
		c10.1,0,20.2,0,30.2,0c3.5,0,6.9,0.6,10,2.3c4.9,2.5,7.7,6.6,9.1,11.8c1.5,5.6,1.5,11.3,0.3,16.9c-2.2,9.8-8.6,14.8-18.9,14.9
		c-5.6,0.1-11-1.1-16.3-2.5c-6.2-1.6-12.4-3.3-18.5-4.9c-3-0.8-5,0.9-5.1,4c0,2.9,0,5.8,0,8.6c0,2-0.3,2.4-2.3,2.6
		c-1,0.1-1.3,0.5-1.2,1.3c0,0.7,0,1.4,0,2.2c0,20.6,0,41.1,0,61.7c0,13.3-8.7,24.4-21.6,27.7c-11.6,3-23.9-1.7-30.7-11.8
		c-0.3-0.4-0.5-0.8-0.8-1.2c-0.2-0.3-0.3-0.9-0.8-0.7c-0.2,0.1-0.2,0.5-0.2,0.8c0,0.6,0,1.3,0,1.9c0,30.4,0,60.8,0,91.2
		c0,0.6,0,1.3,0,1.9c-0.1,2.1-0.4,2.5-2.6,2.5c-8.2,0-16.5,0-24.7,0c-2.2,0-2.2,0-2.4,2.2c-1.1,12.9-2.2,25.8-3.2,38.7
		c-0.9,10.5-1.7,21-2.6,31.6c-0.8,9.6-1.6,19.3-2.4,28.9c0,0.3,0,0.6-0.1,1c-0.1,1.6,0,1.6,1.5,1.7c0.5,0,1,0,1.4,0
		c1.8,0.1,2.1,0.4,2,2.2c-0.2,3.6-0.5,7.2-0.7,10.8c-0.1,1-0.1,2.1-0.2,3.1c-0.1,1,0.2,1.5,1.3,1.5c0.6,0,1.3,0,1.9,0.1
		c0.8,0.2,1.3,0.7,1.2,1.5c-0.1,0.8-0.6,1.1-1.3,1.2c-0.6,0.1-1.3,0.1-1.9,0.1c-1.3-0.1-1.7,0.5-1.7,1.7c0,0.6,0,1.1-0.1,1.7
		c-0.1,1.1-0.5,2.5-0.1,3.3c0.6,0.9,2.1,0.2,3.2,0.4c0.4,0.1,0.8,0.1,1.1,0.3c0.6,0.3,0.7,0.8,0.7,1.4c-0.1,0.6-0.4,1-1.1,1.1
		c-0.2,0-0.5,0-0.7,0.1c-1.1,0.1-2.5-0.5-3.2,0.3c-0.9,0.9-0.6,2.4-0.6,3.7c-0.2,3.9-0.5,3.1,3,3.2c0.5,0,1,0,1.4,0
		c0.9,0.1,1.3,0.6,1.3,1.4c0,0.9-0.5,1.3-1.4,1.4c-1,0-2.1,0.1-3.1,0c-1.1-0.1-1.7,0.2-1.8,1.6c-0.2,4-0.5,8-0.9,12
		c-0.1,1.3,0.7,1.6,1.6,2c6.9,2.8,13.7,5.7,20.6,8.5c3.3,1.3,6.5,2.6,9.7,4c1.2,0.5,2.4,0.8,3.7,0.7c3.6,0,7.2,0,10.8,0
		c4.4,0,6.8,2.4,6.9,6.8c0,5,0,9.9,0,14.9c0,2.4,0,2.4,2.3,2.4c17.2,0,34.4,0,51.6,0c1,0,1.9,0,2.9,0c2,0,2,0,2.1-2.2
		c0-3.7,0-7.4,0-11c0-7.4,0-14.9,0-22.3c0-2.1,0-2.1-2.1-2.8c-3.7-1.1-7.3-2.2-11-3.3c-1.5-0.4-1.5-0.4-1.4,1
		c0.6,5.2-1.4,9.2-5.4,12.3c-2.5,1.9-5,3.7-7.2,6c-1.4,1.4-2.6,1-3.1-0.9c-0.7-2.9-1.8-5.6-2.8-8.4c-2-5.1-1.9-10,2.1-14.3
		c1-1,0-1.1-0.6-1.3c-4.7-1.4-9.5-2.9-14.2-4.3c-0.5-0.1-0.9-0.3-1.4-0.4c-1.6-0.5-1.7-0.5-1.4-2.1c0.2-1,0.4-2,0.7-3
		c0.5-1.8,0.5-1.8,2.2-1.4c3.4,0.8,6.8,1.7,10.2,2.5c5.2,1.3,10.4,2.5,15.6,3.8c0.4,0.1,0.9,0.3,1.1,0c0.1-0.2-0.1-0.7-0.2-1.1
		c-2.7-6-5.5-12.1-8.2-18.1c-0.2-0.4-0.4-0.9-0.6-1.3c-0.2-0.7-1.1-1.5-0.6-2.2c0.6-0.9,1.7-1.2,2.7-1.5c0.9-0.3,1,0.6,1.3,1.1
		c1.8,3.5,3.7,7.1,5.5,10.7c2.2,4.3,4.4,8.5,6.5,12.8c0.5,1.1,1.2,1.7,2.4,2c2.7,0.5,5.3,1.3,7.9,1.9c1.9,0.4,1.9,0.4,1.9-1.6
		c0-6.7,0-13.4,0-20.2c0-4.2-0.6-3.7,3.7-3.7c45,0,90.1,0,135.1,0c3.6,0,3.2-0.3,3.2,3.2c0,3.5,0,7,0,10.6c0,1.8,0.1,1.9,1.7,1.2
		c5.1-1.9,10.2-3.9,15.2-5.8c1.8-0.7,3.6-1.4,5.4-2.1c0.9-0.3,1.4-0.2,1.9,0.7c1.9,3.4,2,3.4-1.5,5.1c-6.9,3.5-13.9,7-20.8,10.3
		c-1.4,0.7-2,1.4-2,3c0.1,15,0,29.9,0,44.9c0,2.2,0,2.2,2.2,2.2c3.2,0,6.4,0,9.6,0c1.2,0,1.6-0.3,1.8-1.6c0.4-3.3,1.1-6.5,2.8-9.4
		c1.5-2.5,3.4-4.5,6.4-5c3.7-0.6,6.6,0.7,8.7,3.8c1.9,2.7,2.9,5.7,3.5,8.9c0.7,3.3,0.7,3.3,4,3.3c2.9,0,5.8,0,8.6,0
		c1.4,0,1.4-0.1,0.9-1.4c-1.7-3.7-3.4-7.4-5-11.1c-0.3-0.6-0.5-1.2-0.7-1.8c-0.3-0.9-0.1-1.6,0.8-2c0.8-0.3,1.4,0.1,1.8,0.8
		c0.8,1.6,1.4,3.2,2.2,4.8c0.3,0.6,0.4,1.8,1.1,1.6c0.6-0.1,0.3-1.2,0.3-1.9c0-3,0-6.1,0-9.1c0-0.6,0-1.1,0.1-1.7
		c0.2-0.7,0.8-1,1.5-0.9c0.6,0,1.1,0.4,1.2,1c0.1,0.6,0.1,1.3,0.1,1.9c0,3.4,0,6.7,0,10.1c0,0.3-0.1,0.7,0.3,0.8
		c0.4,0.1,0.5-0.3,0.6-0.6c0.7-1.5,1.4-3.1,2.1-4.6c0.2-0.5,0.5-1,0.7-1.5c0.4-0.7,1.1-1,1.8-0.7c0.8,0.3,0.9,1.1,0.7,1.8
		c-0.2,0.6-0.5,1.2-0.7,1.8c-1.7,3.7-3.4,7.4-5,11.1c-0.6,1.4-0.6,1.5,1,1.5c9.4,0,18.9,0,28.3,0c0,1.1,0.4,2.7-0.1,3.2
		c-0.6,0.6-2.1,0.1-3.2,0.1C909.9,840.3,740.4,840.3,571,840.3z"/>
	<path fill="#A24C31" d="M1012.5,778.3c-4.1,1.2-8.1,3-12.1,4.5c-2.4,0.9-2.4,0.9-2.4-1.7c0-4.2,0-8.3,0-12.5c0-1.8-0.1-1.8-1.9-1.9
		c-2.6,0-5.3,0-7.9,0c-1.8,0-1.9,0.2-1,1.7c1.2,2.1,2.5,4.1,3.7,6.2c0.2,0.4,0.7,0.7,0.3,1.3c-0.7,1.2-2.2,1.2-3,0
		c-1.5-2.4-3-4.8-4.3-7.2c-0.8-1.5-1.7-2.1-3.4-2c-3,0.1-6.1,0-9.1,0c-6,0-12,0-18,0c-2.4,0-2.4,0-1.2,2.2c1.6,3,3.1,5.9,4.8,8.9
		c0.6,1,0.4,1.5-0.6,2.1c-1,0.6-1.5,0.4-2-0.7c-1.9-3.7-4-7.3-5.9-11c-0.6-1.1-1.2-1.5-2.4-1.5c-2.6,0.1-5.1,0-7.7,0
		c-1.9,0-2,0.2-1,1.9c1.4,2.8,2.9,5.5,4.4,8.2c1.9,3.5,3.7,6.9,5.6,10.4c0.4,0.7,0.8,1.3-0.3,2c-1.4,0.8-1.6,0.9-2.4-0.6
		c-3.5-6.5-7.1-13.1-10.5-19.7c-0.8-1.6-1.8-2.3-3.7-2.3c-12.4,0.1-24.8,0-37.2,0.1c-2.8,0-2.8,0-1.5,2.5c2,3.7,4,7.5,6,11.2
		c0.5,0.9,0.4,1.4-0.6,1.8c-1.3,0.7-1.4,0.7-2.2-0.7c-2.3-4.2-4.6-8.4-6.8-12.7c-0.8-1.5-1.7-2.2-3.5-2.1c-6.4,0.1-12.8,0-19.2,0
		c-4.3,0-3.7-0.4-3.7,3.7c0,6.9,0,13.8,0,20.6c0,2.3,0,2.3-2.3,1.8c-0.2-0.1-0.5-0.1-0.7-0.1c-13.6-3.3-27.2-6.6-40.8-9.9
		c-1.2-0.3-2.3-0.5-3.5-0.8c-0.2-0.1-0.5,0-0.6,0.2c-0.1,0.3,0.1,0.4,0.4,0.5c0.9,0.3,1.8,0.6,2.7,0.9c6.7,1.7,13.2,4.5,20.1,5.5
		c0.8,0.1,1.5,0.5,2.2,0.8c1.2,0.7,2.5,1.1,3.8,1.5c5.4,1.6,10.9,3.2,16.3,4.9c2.6,0.8,2.4,0.2,2.4,3.2c0,11.7,0,23.4,0,35
		c0,2.1,0,2.2,2.1,2.2c4,0,8,0,12,0c3.5,0,3.3,0.2,1.7-2.9c-1.8-3.4-3.6-6.8-5.4-10.1c-0.5-0.9-0.4-1.4,0.6-1.9
		c1.3-0.7,1.4-0.7,2.1,0.7c2.2,4,4.4,8,6.4,12.1c0.8,1.7,1.8,2.3,3.7,2.3c19-0.1,38.1,0,57.1-0.1c0.6,0,1.1,0,1.7,0
		c0.6,0,0.9-0.4,0.6-1c-0.2-0.4-0.4-0.9-0.7-1.3c-3.7-6.8-7.3-13.7-11-20.5c-2.4-4.4-4.7-8.9-7.2-13.3c-0.5-0.9-0.8-1.5,0.4-2.1
		c1.3-0.6,1.4-0.7,2.2,0.7c6.4,11.9,12.8,23.8,19.1,35.7c0.8,1.5,1.6,1.8,3,1.8c14.8,0,29.6,0,44.4,0c3.5,0,3.2,0.4,3.2-3.2
		c0-15.1,0-30.2,0-45.3c0-1.6,0.4-2.4,1.9-3.1c3.8-1.7,7.5-3.7,11.2-5.6C1011.5,779.2,1012.4,779.2,1012.5,778.3c0.2,0,0.4,0,0.6,0
		c0.1,0,0.1-0.3,0-0.3C1012.9,778.1,1012.7,778.2,1012.5,778.3z"/>
	<path fill="#FFFFFF" d="M726.1,757.5C726,757.5,726,757.5,726.1,757.5c0-25.4,0-50.9-0.1-76.3c0-3.6,0.5-3.2-3.1-3.2
		c-15.6,0-31.2,0-46.8,0c-3.9,0-3.4-0.5-3.4,3.3c0,38.5,0,76.9,0,115.4c0,12.4,0,24.8,0,37.2c0,0.6,0,1.3,0,1.9
		c-0.1,0.9,0.3,1.3,1.3,1.3c0.6,0,1.1,0,1.7,0c15.8,0,31.7,0,47.5,0c3.3,0,2.9,0.3,2.9-2.9C726.1,808.6,726.1,783,726.1,757.5z"/>
	<path fill="#CED8DC" d="M498.9,450.9c0,12.4,0,24.8,0,37.2c0,1.5,0.4,2.2,1.8,2.9c12.3,5.8,25.2,8.5,38.8,7.7
		c9.9-0.6,19.2-3.1,28.1-7.4c1.7-0.8,1.7-0.8,1.3-2.5c-2.6-10.5-4-21.2-5-31.9c-1.1-11.7-1.6-23.4-1.8-35.2c0-2.9-0.2-5.8-0.1-8.6
		c0-1.2-0.4-1.6-1.5-1.5c-0.5,0-1,0-1.4,0c-19,0-38.1,0-57.1,0c-0.6,0-1.1,0-1.7,0c-0.9,0-1.4,0.3-1.3,1.3c0,0.6,0,1.3,0,1.9
		C498.9,426.7,498.9,438.8,498.9,450.9z"/>
	<path fill="#7DA6ED" d="M729,709.7c0,0.9,0,1.8,0,2.6c0,9.8,0,19.5,0,29.3c0,2.1,0,2.1,2.1,2.1c3,0,5.9,0,8.9,0
		c2.3,0,2.4,0,2.6-2.3c0.5-5.7,0.9-11.3,1.4-17c0.7-8.9,1.5-17.8,2.2-26.8c0.7-8.7,1.5-17.4,2.2-26c0.3-4.1,0.7-8.1,1.1-12.2
		c0.1-1,0-1.7-1.3-1.7c-1,0-2.1-0.3-3-0.6c-7.5-2.5-11.8-7.6-13.1-15.3c-0.4-2.2-0.3-2.2-2.4-2.2c-20.2,0-40.5,0-60.7,0
		c-1.9,0-2,0-2.2,1.8c-0.7,7.1-6.2,14.8-15.8,16.3c-1.7,0.3-1.7,0.3-1.6,2.1c0.3,3.4,0.6,6.8,0.9,10.3c0.7,8.4,1.4,16.7,2.1,25.1
		c0.9,10.8,1.8,21.7,2.7,32.5c0.4,4.6,0.7,9.2,1.2,13.9c0.2,2.1,0.3,2.1,2.3,2.1c2.8,0,5.6,0,8.4,0c3.3,0,3,0.3,3-3
		c0-20.6,0-41.1,0-61.7c0-0.6,0-1.3,0-1.9c0.1-1.9,0.3-2.1,2.3-2.2c0.3,0,0.6,0,1,0c17.5,0,35,0,52.6,0c0.6,0,1.3,0,1.9,0
		c0.9,0.1,1.4,0.6,1.5,1.6c0,0.6,0,1.3,0,1.9C729,688.9,729,699.3,729,709.7z"/>
	<path fill="#A5D0B7" d="M780.5,558c0-25.3,0-50.6,0-75.8c0-0.9,0-1.8,0.1-2.6c0.1-0.7,0.6-1.1,1.3-1.1c0.8,0,1.3,0.4,1.4,1
		c0.2,0.6,0.1,1.3,0.1,1.9c0,5.9,0,11.8,0,17.8c0,1.9,0,1.9,1.8,1.9c5.7,0,11.4,0,17,0c1.8,0,1.9,0,1.9-1.9c0-8.5,0.2-17-0.1-25.4
		c-0.3-10.9-5.5-19.1-14.8-24.8c-0.4-0.2-0.8-0.5-1.3-0.7c-0.7-0.3-1.1-0.1-1,0.7c0,0.4,0.1,0.8,0.1,1.2
		c0.2,10.3-8.7,16.8-16.2,16.3c-0.6,0-1.1,0-1.7,0c-0.9-0.1-1.1,0.4-1.1,1.1c0,0.6,0,1.1,0,1.7c0,10.1,0,20.2,0,30.2
		c0,5.8,0,11.7,0,17.5c0,3.4-0.6,3.8-3.8,2.3c-1.1-0.5-2.2-1-3.2-1.5c-2.9-1.4-2.9-1.4-2.9,1.8c0,38,0,76,0,114c0,0.4,0,0.8,0,1.2
		c0.1,1.8,0.1,1.8,1.9,1.8c5.8,0,11.7,0,17.5,0c2.9,0,2.8,0.5,2.8-2.9C780.5,608.6,780.5,583.3,780.5,558z"/>
	<path fill="#A5D0B7" d="M698.4,579c0,18.1,0,36.1,0,54.2c0,0.6,0,1.3,0,1.9c-0.1,1.1,0.3,1.7,1.5,1.6c0.4,0,0.8,0,1.2,0
		c10.6,0,21.1,0,31.7,0c0.5,0,1,0,1.4,0c0.8,0,1.2-0.4,1.2-1.1c0-0.4,0-0.8,0-1.2c0-35.1,0-70.2,0-105.3c0-1.3-0.3-2.2-1.5-3
		c-3.2-2.2-6.1-4.6-9.1-7.1c-1.5-1.3-1.6-1.3-2.7,0.5c-2.7,4.5-5.5,8.8-8.6,13c-1.8,2.4-2.1,2.5-4.2,0.5c-3.1-2.9-5.9-6.1-8.8-9.2
		c-0.6-0.6-1.1-1.9-1.8-1.7c-0.8,0.3-0.4,1.6-0.4,2.4C698.4,542.7,698.4,560.9,698.4,579z"/>
	<path fill="#A5D0B7" d="M695.4,579.6c0-18,0-36,0-54c0-0.7,0-1.4,0-2.2c0-0.2,0-0.5-0.3-0.6c-0.3-0.1-0.4,0.1-0.6,0.3
		c-1.1,1.2-2.2,2.5-3.4,3.7c-2.2,2.3-4.3,4.5-6.5,6.7c-1.3,1.3-2,1.2-3.1-0.3c-0.2-0.2-0.4-0.5-0.6-0.8c-3.1-4.1-5.8-8.4-8.5-12.8
		c-1.2-2-1.2-2-2.9-0.6c-2.9,2.3-5.7,4.7-8.7,6.8c-1.6,1.1-2.2,2.3-2.2,4.3c0.1,34.5,0,68.9,0,103.4c0,0.6,0,1.3,0,1.9
		c0,0.8,0.3,1.2,1.2,1.2c0.5,0,1,0,1.4,0c10.6,0,21.1,0,31.7,0c0.4,0,0.8,0,1.2,0c0.9,0.1,1.4-0.3,1.3-1.2c0-0.6,0-1.3,0-1.9
		C695.4,615.6,695.4,597.6,695.4,579.6z"/>
	<path fill="#FCE2D8" d="M698.2,412.7c-14.4,0-28.8,0-43.2,0c-1.8,0-2.9,0.5-4.1,1.8c-5.8,6.7-11.6,13.4-17.5,20.1
		c-1.9,2.2-1.9,2.2,0.5,3.8c11.7,7.8,20.7,17.5,23.3,32c0.1,0.3,0.1,0.7,0.3,0.8c0.4,0.2,0.7-0.3,1-0.5c3.1-3.4,6.5-6.3,10.2-9
		c0.8-0.6,2.1-1.1,2.4-1.9c0.3-1.1-1.2-1.6-1.9-2.5c-0.6-0.8-1.2-1.6-0.3-2.5c0.6-0.7,1.6-0.5,2.5,0.4c0.2,0.2,0.4,0.5,0.6,0.7
		c4.4,4.4,9.3,7.8,15.2,9.6c12,3.8,22.9,1.2,32.7-6.4c1.5-1.2,2.9-2.5,4.3-3.9c0.8-0.7,1.6-1.2,2.5-0.5c0.8,0.6,0.6,1.6-0.4,2.7
		c-0.7,0.8-1.5,1.5-2.3,2.2c-0.8,0.7-0.9,1.1,0.1,1.8c4.3,2.9,8.4,6.1,12,9.9c0.3,0.3,0.5,0.7,1,0.5c0.2-0.1,0.2-0.6,0.3-0.9
		c1.5-9.4,6-17.1,12.6-23.7c3.7-3.8,7.8-7,12.4-9.8c2-1.2,2-1,0.3-2.8c-0.1-0.1-0.1-0.1-0.2-0.2c-5.7-6.6-11.5-13.1-17.2-19.7
		c-1.1-1.3-2.2-1.8-3.9-1.8C727.2,412.8,712.7,412.7,698.2,412.7z"/>
	<path fill="#A5D0B7" d="M614.1,564.1c0,13,0,26.1,0,39.1c0,10.5,0,21,0,31.4c0,2.1,0,2.1,2.1,2.1c5.5,0,11,0,16.6,0
		c2.8,0,2.8,0.5,2.8-2.9c0-38.1,0-76.1,0-114.2c0-0.6,0-1.1,0-1.7c0-0.8-0.4-1-1.1-0.6c-1.4,0.7-2.9,1.4-4.3,2.1
		c-3.3,1.5-3.9,1.1-3.9-2.5c0-11.4,0-22.7,0-34.1c0-4.7,0-9.4,0-14.2c0-2.5,0-2.3-2.1-2.3c-2.9,0-5.6-0.7-7.9-2.3
		c-1.7-1.2-3-1-4.5,0c-0.3,0.2-0.6,0.3-0.8,0.4c-7.8,4.2-15,9.1-21.8,14.8c-1.7,1.4-1.4,1.3-0.3,2.5c4.3,4.5,8.6,9,12.9,13.6
		c0.8,0.9,1.4,1,2.3,0.1c3.5-3,7.3-5.7,11.2-8.2c0.5-0.3,0.9-0.6,1.5-0.8c0.6-0.2,1.3-0.2,1.7,0.5c0.4,0.7,0.4,1.4-0.2,2
		c-0.5,0.4-1,0.8-1.6,1.1c-1.9,0.9-2.5,2.2-2.5,4.3C614.1,517.7,614.1,540.9,614.1,564.1z"/>
	<path fill="#FCE2D8" d="M544.1,586.2c0.1,7.6,0.5,15.3,1.4,23c0.9,8.7,2.4,17.2,4.1,25.8c0.4,1.9,0.4,1.9,2.4,1.8
		c6.2-0.3,12.4-0.6,18.7-1c1.8-0.1,1.8-0.1,1.4-1.9c-2.8-13.1-4.9-26.2-5.5-39.6c-0.7-13.6,0.1-27,3-40.3
		c3.8-17.4,11-33.1,22.5-46.8c0.8-1,2.2-1.8,2.2-3c0-1.2-1.5-2-2.4-2.9c-3.8-4.1-7.7-8.1-11.5-12.2c-0.7-0.8-1.2-0.8-1.9,0
		c-1.3,1.5-2.6,3-4,4.5c-0.7,0.7-0.8,1.4-0.5,2.4c0.7,1.9,1.5,3.9,2.4,5.7c1.1,2.2,1.1,2.5-1.1,3.8c-3.6,2.2-7.5,3.9-11.5,5.3
		c-1.3,0.5-2.1,1.2-2.8,2.4c-3.8,7-7,14.4-9.5,22C546.3,551.8,544.2,568.8,544.1,586.2z"/>
	<path fill="#FCE2D8" d="M834.6,496.8c0-10.9,0-21.7,0-32.6c0-2.1,0-2.1-2.1-2.1c-5.2,0-10.4,0-15.6,0c-3.4,0-3-0.4-3,3.1
		c0,18.7,0,37.4,0,56.1c0,3-2.1,5.1-4.9,5.1c-2.7,0-4.7-2.1-4.7-5c0-2.5-0.1-5,0-7.4c0-1.2-0.4-1.7-1.6-1.7c-5.8,0-11.7,0-17.5,0
		c-1.3,0-1.6,0.5-1.6,1.7c0,4.6,0,9.1,0,13.7c0.1,13.3,10.8,24.4,24.1,25.1c14.4,0.8,26.7-10.7,26.9-25
		C834.7,517.4,834.6,507.1,834.6,496.8z"/>
	<path fill="#C47659" d="M564.2,639.2c-6.2,0.3-10.9,0.6-15.6,0.9c-1.7,0.1-1.7,0.2-1.5,1.9c0.6,4.2,1.1,8.4,1.8,12.6
		c0.3,1.7-0.2,2.8-1.8,3.7c-5.5,3.2-10.8,6.5-16.2,9.8c-0.8,0.5-1.7,1-2.4,1.5c-1.9,1.5-2.5,4-1.4,6.3c1,2.1,3.5,3.7,5.7,3.1
		c2.6-0.7,5.1-1.8,6.8-4.2c1.5-2.1,2.9-4.2,4.4-6.3c0.3-0.5,0.6-0.9,1-1.3c0.6-0.6,1.2-0.7,1.9-0.2c0.7,0.5,0.8,1.2,0.4,1.9
		c-0.2,0.5-0.6,0.9-0.9,1.4c-1.6,2.2-3.1,4.5-4.7,6.7c-3.3,4.7-6.4,9.4-9.8,13.9c-2.6,3.6,0,8.2,4,8.5c2.2,0.1,3.8-0.8,5.1-2.6
		c2.6-3.8,5.3-7.6,8-11.4c1.7-2.3,3-4.7,4.1-7.3c0.6-1.6,1.4-3.2,2.1-4.8c0.4-0.9,1.1-1.1,2-0.9c1,0.3,1,1.1,0.8,2
		c-0.1,0.5-0.3,0.9-0.5,1.3c-0.8,1.8-1.6,3.7-2.4,5.5c-2,4.8-4.1,9.5-6.1,14.3c-1.4,3.3-0.3,6.3,2.7,7.6c3,1.2,5.8-0.3,7.2-3.7
		c0.1-0.4,0.3-0.8,0.4-1.1c2.6-7.3,5.3-14.6,7.9-21.9c0.2-0.5,0.4-1.1,0.6-1.6c0.3-0.7,0.8-1.2,1.7-1.1c0.9,0.1,1.2,0.7,1.2,1.5
		c0,0.7,0.1,1.4,0.2,2.2c0.1,4.3,0.2,8.6,0.3,12.9c0,1.1,0,2.2,0.4,3.3c0.8,2.3,3.1,3.8,5.4,3.6c2.4-0.2,4.3-2,4.8-4.4
		c0.3-1.3,0.2-2.7,0.2-4.1c-0.2-6-0.4-12-0.6-18c-0.1-2.1,0.7-2.7,2.8-2.2c1.8,0.5,3.5,1,5.3,1.5c0.9,0.3,1.9,0.3,2.8,0
		c2.3-0.8,3.9-2.8,3.9-5.2c0-2.3-1.4-4.3-3.7-5c-3.6-1.1-7.2-2.1-10.8-3.1c-2.3-0.7-2.4-0.7-2.5-3.1c-0.2-4.5-0.5-8.9-0.7-13.4
		c-0.1-1.7-0.1-1.7-1.8-1.6C571.8,638.8,567.3,639.1,564.2,639.2z"/>
	<path fill="#EDC062" d="M638.6,575.9c0,19.3,0,38.5,0,57.8c0,0.6,0,1.3,0,1.9c0,0.8,0.4,1.2,1.2,1.1c0.7,0,1.4,0,2.2,0
		c4,0,8,0,12,0c1.3,0,1.8-0.4,1.6-1.7c0-0.2,0-0.5,0-0.7c0-34.1,0-68.3,0-102.4c0-1.1,0.2-2.2-1.4-2.5c-0.6-0.1-0.8-0.9-1.1-1.5
		c-1.6-3.4-3.2-6.8-4.8-10.2c-0.8-1.7-1.5-3.5-2.2-5.3c-0.3-0.9-0.8-1-1.6-0.5c-1.3,0.8-2.6,1.6-4,2.2c-1.7,0.7-2,1.8-2,3.5
		C638.6,537,638.6,556.4,638.6,575.9z"/>
	<path fill="#EDC062" d="M755.3,575.7c0-19.4,0-38.7,0-58.1c0-0.6,0-1.3,0-1.9c0-0.5-0.2-0.9-0.6-1.2c-1.7-1-3.3-1.9-5-2.8
		c-0.5-0.3-0.9-0.2-1.1,0.4c-0.2,0.5-0.4,1-0.6,1.6c-1.9,4.8-4,9.4-6.3,14c-0.5,1.1-0.9,2.3-2.5,2.1c-0.5-0.1-0.6,0.4-0.6,0.8
		c0,0.6,0,1.1,0,1.7c0,33.9,0,67.8,0,101.8c0,0.6,0,1.1,0,1.7c0,0.8,0.4,1.1,1.2,1.1c4.8,0,9.6,0,14.4,0c0.9,0,1.3-0.3,1.3-1.3
		c0-0.6,0-1.3,0-1.9C755.3,614.3,755.3,595,755.3,575.7z"/>
	<path fill="#EDC062" d="M669.8,790.3C669.8,790.3,669.8,790.3,669.8,790.3c0-10.2,0-20.3,0-30.5c0-1.4,0-2.9,0-4.3
		c0-1.7-0.1-1.8-1.8-1.8c-4.9,0-9.8,0-14.6,0c-0.1,0-0.2,0-0.2,0c-1,0-1.5,0.3-1.3,1.4c0.2,1.6,0.3,3.2,0.3,4.8
		c0,1.1,0.5,1.4,1.5,1.4c1.2,0,2.4,0,3.6,0.2c0.7,0.1,1.1,0.6,1.1,1.4c0,0.8-0.5,1.2-1.1,1.3c-0.3,0.1-0.6,0.1-1,0.1
		c-1.2,0.1-2.7-0.6-3.4,0.4c-0.7,1-0.1,2.5,0,3.7c0.2,2.8,0.3,2.8,3.2,2.9c0.3,0,0.6,0,1,0c0.9,0.1,1.5,0.6,1.4,1.6
		c-0.1,0.9-0.7,1.2-1.5,1.2c-1.2,0.1-2.7-0.6-3.4,0.4c-0.6,0.9,0.1,2.3,0.1,3.5c0,0.6,0.1,1.3,0.1,1.9c0,1.1,0.5,1.4,1.5,1.3
		c0.7,0,1.4,0,2.2,0.1c0.7,0.1,1.1,0.6,1.1,1.4c0,0.7-0.4,1.2-1.1,1.3c-0.5,0.1-1,0.1-1.4,0.1c-1.8,0.1-1.8,0.1-1.7,2
		c0,1.1,0.2,2.2,0.2,3.3c0.2,3,0.5,6.1,0.7,9.1c0.1,2.3,0.1,2.4-2,3.2c-10.8,4.4-21.6,8.9-32.3,13.3c-1.1,0.5-2.2,0.7-3.5,0.7
		c-3.8,0-7.7,0-11.5,0c-2.8,0-4.1,1.3-4.2,4.1c-0.1,1.5,0,3,0,4.6c0,2,0,2,2,2c21.4,0,42.9,0,64.3,0c2.1,0,2.1,0,2.1-2.1
		c0-0.5,0-1,0-1.4C669.8,812,669.8,801.2,669.8,790.3z"/>
	<path fill="#EDC062" d="M729,790.1C729,790.1,728.9,790.1,729,790.1c0,11,0,22.1,0,33.1c0,0.6,0,1.3,0,1.9c0,0.9,0.3,1.4,1.2,1.3
		c0.5,0,1,0,1.4,0c21,0,41.9,0,62.9,0c0.5,0,1,0,1.4,0c0.9,0.1,1.3-0.4,1.3-1.3c0-1.7,0-3.4,0-5c0-3.1-1.2-4.3-4.4-4.3
		c-3.7,0-7.4,0-11,0c-1.3,0-2.5-0.2-3.7-0.7c-10.8-4.5-21.6-8.9-32.4-13.3c-2-0.8-2-0.8-1.9-3c0.2-3.8,0.5-7.7,0.8-11.5
		c0.2-2.8,0.2-2.9-2.5-3.1c-1-0.1-1.8-0.4-1.7-1.5c0-1.2,0.9-1.3,1.8-1.4c2.8-0.1,2.8-0.2,2.9-2.9c0-0.2,0-0.5,0-0.7
		c0-1,0.5-2.2,0-3.1c-0.7-1.1-2-0.4-3.1-0.5c-0.9-0.1-1.6-0.2-1.7-1.3c-0.1-1.1,0.7-1.5,1.7-1.6c0.8-0.1,1.6,0,2.4,0
		c0.7,0,1.2-0.2,1.3-1c0.1-1.6,0.2-3.2,0.4-4.8c0.1-0.8-0.3-1.2-1.1-1.2c-1,0-1.9,0-2.9,0c-0.9,0-1.8-0.2-1.7-1.4
		c0.1-1.1,0.9-1.4,1.8-1.5c0.8,0,1.6,0,2.4,0c1.7-0.1,1.8-0.1,1.9-1.7c0.1-1.4,0.1-2.9,0.3-4.3c0.1-1.2-0.4-1.5-1.5-1.5
		c-5,0-9.9,0-14.9,0c-1.1,0-1.6,0.4-1.5,1.6c0,0.6,0,1.1,0,1.7C729,768,729,779.1,729,790.1z"/>
	<path fill="#FFFFFF" d="M596.5,432.3C596.5,432.4,596.5,432.4,596.5,432.3c-9.8,0.1-19.5,0.1-29.3,0.1c-1.8,0-1.9,0-1.8,1.8
		c0.2,6.3,0.6,12.6,1.1,18.9c0.8,10,2.1,20,4.1,29.9c0.5,2.3,1,4.5,1.6,6.8c0.3,1.3,0.5,1.3,1.5,0.3c0.7-0.8,1.4-1.6,2.1-2.3
		c1.4-1.5,1.4-1.5,0.2-3.2c-0.9-1.2-1-1.8,0.2-2.9c1.7-1.6,3.3-3.2,5.1-4.8c1.2-1.1,1.7-1,2.9,0c1.4,1.3,1.4,1.3,3,0
		c7.1-6,14.8-11.2,23-15.5c0.3-0.1,0.6-0.3,0.9-0.4c0.6-0.3,0.9-0.7,0.4-1.3c-0.3-0.4-0.6-0.8-0.8-1.2c-3.1-5.8-3-11.6,0.7-17
		c3.4-5,8.3-7.3,14.4-6.8c1.2,0.1,1.5-0.4,1.6-1.5c0.1-1.4-0.9-0.8-1.5-0.8C616,432.3,606.3,432.3,596.5,432.3z"/>
	<path fill="#A24C31" d="M866.3,411.3c-5,0-10.1,0-15.1,0c-1.8,0-1.9,0-1.9,1.9c0,3.3,0,6.6,0,9.8c0,2.1,0.1,4.2,0,6.2
		c-0.2,2.9-1.5,5.2-4.3,6.4c-2.6,1.1-5.2,0.9-7.4-1c-1.1-0.9-1.6-0.6-2.6,0.1c-2.3,1.8-4.8,2-7.5,0.8c-0.9-0.4-1.7-1.5-2.6-1.6
		c-1.1-0.1-1.7,1.2-2.8,1.6c-1.7,0.8-1.7,0.8-0.5,2.4c0.6,0.8,1.3,1,2.2,1.2c3.5,0.6,7.1,1.3,10.6,2c10.6,2.1,21,4.9,31.4,7.7
		c5.6,1.5,11.2,2.6,17,2.2c7.3-0.5,12.2-4.5,14-11.6c1.2-4.8,1.3-9.7,0.4-14.5c-1.3-6.7-4.9-11.4-11.8-13c-1.7-0.4-3.5-0.6-5.2-0.6
		C875.6,411.3,870.9,411.3,866.3,411.3z"/>
	<path fill="#E8384A" d="M697.4,394.4c15.4,0,30.9,0,46.3,0c0.6,0,1.3,0,1.9,0c0.7,0,0.8-0.4,0.5-0.9c-0.6-1-1.3-2-2-3
		c-4.5-6.2-10.2-11-17-14.4c-17-8.6-34.6-9.4-52.5-3c-10.2,3.7-18.8,9.8-24.9,19.1c-0.3,0.5-0.6,0.9-0.9,1.4
		c-0.3,0.6-0.1,0.9,0.5,0.9c0.6,0,1.3,0,1.9,0C666.7,394.4,682,394.4,697.4,394.4z"/>
	<path fill="#E8384A" d="M697.2,409.8c18.9,0,37.9,0,56.8,0c0.6,0,1.1,0,1.7,0c1.1,0.1,1.6-0.3,1.5-1.5c-0.1-2.6,0-5.1,0-7.7
		c0-3.6,0.4-3.2-3.2-3.2c-37.9,0-75.8,0-113.7,0c-0.5,0-1,0-1.4,0c-1.2-0.1-1.7,0.4-1.7,1.7c0.1,2.8,0,5.6,0,8.4
		c0,2.4-0.2,2.3,2.3,2.3c0.4,0,0.8,0,1.2,0C659.6,409.8,678.4,409.8,697.2,409.8z"/>
	<path fill="#A24C31" d="M800.4,423.4c0-3.9,0-7.2,0-10.5c0-1.1-0.3-1.7-1.5-1.6c-0.3,0-0.6,0-1,0c-11.8,0-23.7,0-35.5,0
		c-0.5,0-1,0-1.4,0c-0.9,0.1-1.1,0.6-0.9,1.3c0.1,0.5,0.4,0.9,0.6,1.3c3.1,5.4,5.4,11.1,6.9,17.1c0.4,1.4,1,1.8,2.4,1.9
		c6.1,0.5,12.3,1.1,18.4,1.7c3.7,0.4,7.3,0.7,11,1.1c0.8,0.1,1.5,0.1,1.2-1.1C800,430.7,800.6,426.7,800.4,423.4z"/>
	<path fill="#E8384A" d="M534.8,513c7.7,0,16.8-1.3,24.1-3.5c4.7-1.4,9.2-3.2,13.5-5.5c1-0.5,1.4-1,0.8-2.2c-1.1-2-1.7-4.3-2.5-6.5
		c-0.6-1.8-0.6-1.8-2.4-1c-0.1,0-0.1,0.1-0.2,0.1c-17.3,8-35.1,9.4-53.5,4.8c-4.9-1.2-9.6-3-14.2-5c-1.3-0.6-1.4-0.5-1.4,0.8
		c0,2.2,0,4.3,0,6.5c0,1.2,0.4,1.9,1.4,2.5c2.5,1.6,5.1,3,7.8,4.1C516.6,511.6,525.6,512.9,534.8,513z"/>
	<path fill="#C47659" d="M824.7,459.1c3.9,0,7.8,0,11.8,0c1.2,0,1.7-0.4,1.7-1.6c-0.1-2.6,0-5.1,0-7.7c0-1.3,0.1-2.5,1.3-3.4
		c0.7-0.5,0.7-1-0.3-1.2c-4.4-0.8-8.8-1.7-13.2-2.6c-0.5-0.1-0.9-0.2-1.4,0.4c-1.3,1.3-1.9,1.2-3-0.3c-2.7-3.6-5.4-7.2-8-10.8
		c-1.3-1.8-1.2-2.5,0.9-3.5c2-0.9,4-1.7,5.9-2.6c1.8-0.8,3.6-1.5,5.2-2.4c2-1,2.6-3.4,1.7-5.4c-0.9-2-3.1-2.9-5.3-2.2
		c-0.4,0.1-0.7,0.3-1.1,0.5c-4.5,2.2-8.9,4.3-13.3,6.5c-1.4,0.7-3.2,1-3.9,2.2c-0.6,1.1-0.2,2.8-0.2,4.2c-0.1,6.7,2.1,12.4,7,17
		c0.9,0.8,1.1,1.6,1.1,2.7c-0.1,2.6,0,5.1,0,7.7c0,2.1,0,2.2,2.1,2.2C817.3,459.1,821,459.1,824.7,459.1z"/>
	<path fill="#A24C31" d="M602.6,411.5c-3.8,0-7.7,0-11.5,0c-1.1,0-2.2,0-3.4,0c-0.7,0-0.8,0.4-0.3,0.9c0.3,0.4,0.7,0.7,1,1
		c4,4.2,8.1,8.4,12.1,12.6c3.4,3.6,3.7,3.7,8.7,3.4c0.3,0,0.7,0.1,0.8-0.3c0.2-0.4-0.2-0.6-0.4-0.8c-1.8-2-3.6-4-5.4-6.1
		c-0.4-0.4-0.8-0.8-1-1.3c-0.3-0.6-0.2-1.2,0.4-1.7c0.6-0.5,1.2-0.5,1.7-0.1c0.6,0.4,1.1,1,1.5,1.5c2.3,2.5,4.6,5.1,6.9,7.7
		c0.7,0.8,1.4,1.1,2.5,1.1c2.8-0.1,5.6,0,8.4,0c3.7-0.1,3.6-0.1,4.9-3.6c0.5-1.3,0.3-2.2-0.7-3.2c-3.3-3.3-6.6-6.7-9.8-10.1
		c-0.8-0.9-1.7-1.1-2.8-1.1C611.7,411.5,607.1,411.5,602.6,411.5z"/>
	<path fill="#FFFFFF" d="M807.1,485.4c0,0,0.1,0,0.1,0c0,2.7,0,5.4,0,8.1c0,2,0,4,0,6c0,0.5-0.2,1.1,0.5,1.4c1.7,0.7,3.1-0.1,3.1-2
		c0-0.2,0-0.5,0-0.7c0-11.2,0-22.4,0-33.6c0-0.5,0-1,0-1.4c0-0.6,0-1.1-0.8-1.2c-1.3-0.2-1.5-1.2-1.5-2.3c0-3,0-6.1,0-9.1
		c0-0.9-0.1-1.7-0.8-2.4c-2.4-2.3-4.2-5-5.5-8.1c-0.4-0.9-0.9-1.1-1.8-1.2c-1.8-0.2-3.6-0.5-5.5-0.7c-4.6-0.5-9.2-0.9-13.8-1.4
		c-0.3,0-0.7-0.2-0.8,0.2c-0.1,0.4,0.3,0.5,0.6,0.7c1.7,1.3,3.1,2.8,4.1,4.7c0.6,1.2,1.5,1.9,2.7,2.4c11.8,5.5,18.4,14.8,19.3,27.8
		C807.3,476.9,807.1,481.2,807.1,485.4z"/>
	<path fill="#A24C31" d="M565,420.4c0.1,0,0.2,0,0.2,0c0,2.6,0,5.1,0,7.7c0,1,0.3,1.4,1.3,1.4c4.6,0,9.3,0,13.9,0
		c0.3,0,0.7,0.1,0.8-0.3c0.2-0.4-0.2-0.6-0.3-0.8c-1.8-2-3.7-4-5.5-6c-1.3-1.4-1.4-2.3-0.6-3.1c0.8-0.7,1.5-0.4,2.8,0.9
		c2.4,2.7,4.8,5.3,7.2,8c0.7,0.8,1.5,1.3,2.6,1.3c3.4-0.1,6.7,0,10.1,0c0.3,0,0.6,0,1,0c0.4-0.1,0.5-0.3,0.3-0.6
		c-0.2-0.3-0.4-0.5-0.6-0.7c-5-5.2-10.1-10.4-15.1-15.7c-0.5-0.5-1.1-0.9-1.9-0.9c-5,0-9.9,0-14.9,0c-1.1,0-1.4,0.5-1.4,1.5
		C565,415.4,565,417.9,565,420.4z"/>
	<path fill="#E8384A" d="M707.3,356.1c0-5.4-4.4-9.9-9.8-10c-5.3-0.1-9.9,4.4-10,9.8c-0.1,5.4,4.4,9.9,9.8,10
		C702.7,366,707.3,361.5,707.3,356.1z"/>
	<path fill="#FCE2D8" d="M768.3,450.6c0,3.8,0,7.5,0,11.3c0,1.2,0.4,1.7,1.6,1.7c1.7,0,3.3,0,5-0.5c6.4-2,10.4-8.4,9.2-14.9
		c-1.2-6.4-7.3-11.1-13.8-10.5c-1.9,0.2-2,0.2-2,2.2C768.2,443.4,768.3,447,768.3,450.6z"/>
	<path fill="#FCE2D8" d="M626.2,450.5c0-3.8,0-7.7,0-11.5c0-1-0.3-1.4-1.4-1.5c-1.5,0-2.9,0.1-4.3,0.6c-5.8,1.8-9.8,7.8-9.1,13.6
		c0.8,6.4,6.1,11.4,12.3,11.7c2.2,0.1,2.4-0.1,2.4-2.4C626.2,457.6,626.2,454.1,626.2,450.5z"/>
	<path fill="#C47659" d="M846.3,420.6C846.2,420.6,846.2,420.6,846.3,420.6c0-2.9,0.1-5.7-0.1-8.6c-0.1-2.4-2.1-4.1-4.2-4.1
		c-2.2,0-4.2,1.9-4.2,4.4c-0.1,5.6-0.1,11.2,0,16.7c0,2.5,1.9,4.3,4.2,4.3c2.2,0,3.9-1.7,4.2-4.1c0.1-0.6,0-1.1,0-1.7
		C846.3,425.2,846.3,422.9,846.3,420.6z"/>
	<path fill="#7DA6ED" d="M655.7,639.7C655.7,639.7,655.7,639.7,655.7,639.7c-2.2,0-4.5,0-6.7,0c-1,0-1.3,0.4-1.2,1.3
		c0.4,4.3,0.7,8.6,1,12.9c0.1,1,0.6,1.1,1.5,1c1.9-0.3,3.7-0.8,5.4-1.8c4.5-2.6,7.3-6.4,8-11.6c0.2-1.7,0.2-1.8-1.5-1.8
		C660,639.7,657.8,639.7,655.7,639.7z"/>
	<path fill="#7DA6ED" d="M743,639.7c-2.2,0-4.3,0-6.5,0c-1.6,0-1.6,0.1-1.5,1.6c0.6,6.7,6.8,12.9,13.5,13.5c0.9,0.1,1.3-0.3,1.4-1.1
		c0.3-4.2,0.7-8.4,1-12.6c0.1-1-0.2-1.4-1.3-1.4C747.4,639.7,745.2,639.7,743,639.7z"/>
	<path fill="#FFFFFF" d="M1025.5,836.8c2.2,0,4.5,0,6.7,0c0.7,0,1.4-0.1,1.2-1c-0.6-3.7-1.5-7.4-4.2-10.3c-2.1-2.2-5.1-2.3-7.4-0.3
		c-0.7,0.6-1.2,1.2-1.7,2c-1.6,2.6-2.2,5.5-2.7,8.4c-0.2,1,0.5,1.2,1.3,1.2C1021,836.8,1023.2,836.8,1025.5,836.8z"/>
	<path fill="#C47659" d="M834.7,420.7C834.7,420.7,834.7,420.7,834.7,420.7c0-2.8,0-5.6,0-8.4c0-2.2-1.4-3.9-3.4-4.3
		c-1.7-0.4-3.7,0.6-4.6,2.3c-0.4,0.8-0.5,1.7-0.4,2.6c0.1,0.9,0.9,1,1.5,1.4c3.7,3,3.7,8.4,0,11.4c-0.7,0.6-1.7,0.9-1.5,2.2
		c0.1,0.9-0.1,1.9,0.4,2.8c0.8,1.7,2.7,2.8,4.5,2.5c2-0.3,3.5-1.8,3.5-3.9C834.8,426.4,834.7,423.6,834.7,420.7z"/>
	<path fill="#A5D0B7" d="M603.1,501.8c-0.3-0.8-0.8-1.3-1.3-1.8c-5.7-6-11.3-11.9-17-17.9c-2.4-2.5-1.7-2.8-4.5-0.1
		c-1.3,1.2-1.3,1.3-0.1,2.6c5.8,6.2,11.7,12.3,17.5,18.4c2.1,2.2,2.1,2.2,4.3,0C602.4,502.6,602.7,502.2,603.1,501.8z"/>
	<path fill="#249A4B" d="M827.8,800c0,0.4,0,1,0.1,1.5c0.7,3,2.4,5.7,3.2,8.7c0.2,0.6,0.6,0.4,0.9,0.1c1.9-1.7,4.1-3,6.1-4.7
		c1.9-1.6,3-3.7,3.5-6.1c0.5-2.6-0.4-4.7-2.5-6.3c-1.1-0.8-1.4-0.7-1.9,0.6c-1.1,2.7-1.8,5.4-2.2,8.3c-0.1,0.5-0.2,1.1-0.3,1.6
		c-0.2,0.7-0.7,1-1.5,1c-0.9,0-1.3-0.6-1.4-1.4c-0.1-0.5,0.1-0.9,0.1-1.4c0.3-2.9,1.2-5.8,2.1-8.6c0.1-0.4,0.6-0.9,0.3-1.3
		c-0.4-0.5-1.1-0.2-1.6-0.1c-1,0.3-1.9,0.8-2.7,1.5C828.3,795.3,827.8,797.5,827.8,800z"/>
	<path fill="#A5D0B7" d="M796.9,509.2c4.2,0,8.3,0,12.5,0c1.1,0,1.7-0.3,1.6-1.5c0-0.4,0-0.8,0-1.2c0-2.4,0-2.4-2.3-2.4
		c-7.3,0-14.5,0-21.8,0c-3.6,0-3.2-0.5-3.2,3.2c0,1.8,0,1.9,1.8,1.9C789.2,509.2,793,509.2,796.9,509.2z"/>
	<path fill="#FFFFFF" d="M635.4,830.9c10.8,0,21.6,0,32.4,0c0.7,0,1.9,0.4,1.9-0.8c0-1.1-1.2-0.8-1.9-0.8c-21.4,0-42.9,0-64.3,0
		c-0.5,0-1,0-1.4,0.1c-0.3,0.1-0.5,0.4-0.5,0.7c0,0.3,0.2,0.6,0.5,0.7c0.7,0.1,1.4,0.1,2.2,0.1C614.6,830.9,625,830.9,635.4,830.9z"
		/>
	<path fill="#FFFFFF" d="M763.2,830.9c10.4,0,20.8,0,31.2,0c0.7,0,1.4,0,2.2-0.1c0.3,0,0.5-0.3,0.5-0.7c0-0.4-0.2-0.7-0.5-0.7
		c-0.6-0.1-1.3-0.1-1.9-0.1c-7.9,0-15.8,0-23.7,0c-13,0-26.1,0-39.1,0c-0.7,0-1.4,0-2.2,0.1c-0.5,0-0.7,0.4-0.7,0.8
		c0,0.4,0.3,0.6,0.6,0.6c0.7,0,1.4,0.1,2.2,0.1C742.3,830.9,752.7,830.9,763.2,830.9z"/>
	<path fill="#C47659" d="M803.4,416.1c0,1.4,0,2.9,0,4.3c0,1,0.4,1.1,1.2,0.7c1-0.5,2-0.9,3-1.5c1.4-0.8,3.3-1,4-2.3
		c0.7-1.4,0.2-3.3,0.2-5c0-2.6-1.9-4.6-4.3-4.5c-2.2,0-4.1,1.9-4.2,4.4C803.3,413.6,803.4,414.8,803.4,416.1z"/>
	<path fill="#A24C31" d="M495.9,420.7C495.9,420.7,495.8,420.7,495.9,420.7c0-2.6,0-5.3,0-7.9c0-1-0.4-1.3-1.3-0.9
		c-2.8,1.1-4.3,3.2-4.6,6.2c-0.1,1.6-0.1,3.2,0,4.8c0.3,2.9,1.8,5,4.6,6.2c0.9,0.4,1.4,0.1,1.4-0.9
		C495.8,425.7,495.9,423.2,495.9,420.7z"/>
	<path fill="#EDC062" d="M660.5,750.7c2.5,0,5.1,0,7.6,0c1.7,0,1.7-0.1,1.7-2.1c0-1.8,0-1.8-1.6-1.8c-5,0-10,0-15,0c-2,0-2,0-1.7,2
		c0.2,1.9,0.2,1.9,2.2,1.9C655.9,750.7,658.2,750.7,660.5,750.7z"/>
	<path fill="#EDC062" d="M738.2,750.7c2.2,0,4.5,0,6.7,0c2.2,0,2.2,0,2.4-2.1c0.1-1.7,0.1-1.8-1.6-1.8c-5,0-10.1,0-15.1,0
		c-1.7,0-1.7,0.1-1.7,2c0,1.9,0,1.9,1.8,1.9C733.3,750.7,735.7,750.7,738.2,750.7z"/>
	<path fill="#A24C31" d="M628.7,411.5C628.7,411.5,628.7,411.5,628.7,411.5c-1.7,0-3.3,0-5,0c-0.8,0-1,0.4-0.4,1
		c2.4,2.5,4.9,5,7.3,7.6c0.7,0.7,1,0.4,1.4-0.3c0.9-1.8,1.7-3.6,2.7-5.3c1-1.9,0.3-2.9-1.8-3C631.4,411.5,630,411.5,628.7,411.5z"/>
	<path fill="#C47659" d="M814.8,413.3c0,0.5,0,0.8,0,1.1c0,1.6,0.1,1.6,1.6,1c2-0.9,3.9-2.2,6.1-2.6c0.7-0.1,0.9-0.5,0.8-1.2
		c-0.3-2.7-3.4-4.5-5.9-3.3C815.2,409.3,814.7,411.2,814.8,413.3z"/>
	<path fill="#FFFFFF" d="M810.9,517.5C810.9,517.5,810.9,517.5,810.9,517.5c0-1,0-2.1,0-3.1c0-2.1-0.3-2.3-2.3-2.1
		c-0.8,0.1-1.3,0.3-1.3,1.3c0,2.6,0,5.3,0,7.9c0,1.1,0.7,1.8,1.7,1.9c0.9,0.1,1.8-0.8,1.9-2C810.9,520.1,810.9,518.8,810.9,517.5z"
		/>
	<path fill="#FFFFFF" d="M763.1,837c1.6,0,3.2,0,4.8,0c1,0,1.2-0.6,1.1-1.4c0-0.8,0.2-1.7-1-1.8c-3.3,0-6.5,0-9.8,0
		c-1.2,0-0.9,1-1,1.8c-0.1,0.8,0.1,1.4,1.1,1.4C759.9,837,761.5,837,763.1,837z"/>
	<path fill="#FFFFFF" d="M748.3,837c1.6,0,3.2,0,4.8,0c0.9,0,1.3-0.3,1.2-1.3c-0.1-0.8,0.3-1.9-1.1-1.9c-3.2,0-6.4,0-9.5,0
		c-1.2,0-1.1,0.9-1.1,1.7c0,0.9,0.1,1.6,1.3,1.5C745.3,837,746.8,837,748.3,837z"/>
	<path fill="#FFFFFF" d="M650.2,837c1.6,0,3.2,0,4.8,0c1.1,0,1.3-0.6,1.3-1.5c0-0.8,0-1.7-1.2-1.7c-3.2,0-6.4,0-9.6,0
		c-1.2,0-1.1,0.8-1.1,1.7c0,0.9,0.1,1.6,1.3,1.5C647.1,837,648.7,837,650.2,837z"/>
	<path fill="#FFFFFF" d="M635.6,837c1.5,0,3,0,4.5,0c1.1,0,1.4-0.4,1.3-1.4c0-0.9,0.1-1.8-1.3-1.8c-3.1,0-6.2,0-9.3,0
		c-1.4,0-1.1,1-1.2,1.8c-0.1,1.1,0.4,1.4,1.4,1.3C632.6,837,634.1,837,635.6,837z"/>
	<path fill="#FFFFFF" d="M607.2,837c1.5,0,3-0.1,4.6,0c1.2,0.1,1.5-0.4,1.5-1.5c0-1-0.2-1.7-1.4-1.7c-3,0-6.1,0-9.1,0
		c-1.3,0-1.4,0.7-1.4,1.7c0,1.2,0.4,1.6,1.6,1.5C604.4,837,605.8,837,607.2,837z"/>
	<path fill="#FFFFFF" d="M791.3,837c1.5,0,3,0,4.6,0c1,0,1.4-0.4,1.4-1.4c-0.1-0.9,0.1-1.8-1.2-1.8c-1.2,0-2.4,0-3.6,0
		c-1.7,0-3.4,0-5,0c-1.8,0-1.8,0.1-1.8,1.7c0,1.4,0,1.5,1.7,1.5C788.6,837,789.9,837,791.3,837z"/>
	<path fill="#FFFFFF" d="M621.6,837c1.4,0,2.7,0,4.1,0c1,0,1.2-0.5,1.1-1.4c-0.1-0.7,0.3-1.8-1-1.8c-2.9,0-5.8,0-8.6,0
		c-1.2,0-1,1-1,1.8c0,0.8,0.1,1.4,1.1,1.4C618.7,837,620.1,837,621.6,837z"/>
	<path fill="#FFFFFF" d="M664.4,837c1.4,0,2.9,0,4.3,0c1,0,1.2-0.6,1.1-1.4c0-0.8,0.2-1.7-1-1.8c-2.9,0-5.8,0-8.6,0
		c-1.2,0-0.9,1-1,1.8c-0.1,0.8,0.1,1.4,1.1,1.4C661.6,837,663,837,664.4,837z"/>
	<path fill="#FFFFFF" d="M734.2,837c1.4,0,2.7,0,4.1,0c0.9,0,1.4-0.3,1.3-1.2c-0.1-0.8,0.3-1.9-1.1-1.9c-2.8,0-5.6,0-8.4,0
		c-1.4,0-1.1,1-1.2,1.9c-0.1,0.9,0.3,1.3,1.2,1.3C731.5,837,732.9,837,734.2,837z"/>
	<path fill="#FFFFFF" d="M777.1,837c1.4,0,2.9,0,4.3,0c1,0,1.2-0.5,1.2-1.4c-0.1-0.8,0.2-1.8-1-1.8c-2.9,0-5.8,0-8.6,0
		c-1.2,0-1,1-1,1.8c0,0.8,0,1.4,1.1,1.4C774.4,837,775.8,837,777.1,837z"/>
	<path fill="#C47659" d="M823.4,429.3c0.1-1-0.2-1.3-1.2-0.8c-1.4,0.6-2.8,1.2-4.2,1.8c-1.6,0.7-1.6,0.8-0.6,2.1
		c0.6,0.7,1.2,1,2,0.9C821.5,433,823.1,431.3,823.4,429.3z"/>
	<polygon fill="#FFFFFF" points="1014.3,777.6 1014.2,777.7 1014.3,777.7 	"/>
	<path fill="#151D38" d="M294.5,837c7.8,0,15.7,0,23.5,0c1.9,0,1.9,0,1.9-2.1c0-5.5,0-11,0-16.6c0-0.6-0.1-1.3,0-1.9
		c0.2-1.3,1-1.8,2.2-1.2c0.9,0.4,1.8,1,2.7,1.5c2.1,1.3,4.3,2.5,6.4,3.8c1,0.6,1.6,0.6,2.5-0.2c2.1-2,4.2-3.9,6.3-5.9
		c2.3-2.1,2.3-2.1,5.1-0.5c2.4,1.4,4.8,2.8,7.2,4.3c1,0.6,1.7,0.7,2.7-0.3c2.1-2.1,4.5-4.1,6.7-6.2c1.8-1.7,1.9-1.7,4.1-0.4
		c2.5,1.4,5,2.9,7.4,4.4c1.8,1,1.8,1,3.2-0.3c2.2-2.1,4.4-4.1,6.7-6.2c1.6-1.4,1.7-1.4,3.5-0.4c2.6,1.5,5.2,3.1,7.9,4.6
		c1.7,1,1.7,1,3.2-0.4c2.2-2,4.3-4,6.5-6c1.7-1.5,1.8-1.6,3.7-0.4c2.6,1.5,5.2,3.1,7.8,4.6c1.6,0.9,1.6,0.9,3-0.4
		c2.3-2.1,4.6-4.2,6.9-6.3c1.3-1.2,1.6-1.2,3.2-0.4c2.7,1.6,5.4,3.2,8.1,4.7c1.7,1,1.7,1,3.2-0.4c2.1-1.9,4.1-3.8,6.2-5.7
		c2.1-1.9,2.1-1.9,4.7-0.4c2.5,1.5,5,2.9,7.4,4.4c1.1,0.7,1.8,0.6,2.7-0.3c2.2-2.2,4.5-4.3,6.9-6.4c1.7-1.5,1.8-1.5,3.7-0.4
		c2.7,1.6,5.4,3.1,8,4.8c1,0.6,1.6,0.6,2.5-0.2c2.2-2.2,4.6-4.2,6.9-6.4c0.9-0.9,1.9-1.2,3.2-1.3c2.6-0.1,5.3-0.4,7.8-1
		c4-1,7.4-3,10.4-5.7c1.4-1.2,2.7-2.5,4.1-3.6c8.2-6.8,19.3-1.3,21.5,7.8c0.4,1.6,0.5,3.3,0.5,5c0,9.8,0,19.5,0,29.3
		c0,2.5-0.4,4.9-1.8,7.1c-0.7,1.1-0.7,1.2,0.8,1.2c5.2,0,10.4,0,15.6,0c2.6,0,5.1,0,7.7,0c1.8,0,1.8,0,1.8,1.9c0,0.5,0,1,0,1.4
		c-88.1,0-176.2,0-264.2,0c-0.3,0-0.7-0.1-1,0c-1,0.2-1.4-0.2-1.2-1.2C294.6,838.4,294.5,837.7,294.5,837z"/>
	<path fill="#CED8DC" d="M406.1,829.6c26.6,0,53.3,0,79.9,0c0.7,0,1.4,0,2.2,0c1.7-0.1,1.7-0.1,1.7-1.8c0-3.7,0-7.4,0-11
		c0-4.1,0-8.2,0-12.2c0-0.7,0.3-1.7-0.3-2c-0.7-0.4-1.2,0.6-1.7,1c-1.3,1.1-2.5,2.2-3.7,3.4c-2.5,2.3-2.5,2.3-5.5,0.5
		c-2.3-1.4-4.7-2.7-7-4.2c-1.1-0.7-1.8-0.6-2.7,0.3c-2.2,2.1-4.5,4.1-6.7,6.2c-1.8,1.6-1.9,1.7-3.9,0.5c-2.7-1.6-5.4-3.1-8-4.8
		c-1-0.6-1.7-0.5-2.5,0.3c-2.2,2.2-4.6,4.3-6.9,6.4c-1.8,1.6-1.8,1.6-3.9,0.4c-2.6-1.5-5.1-3-7.6-4.5c-1.7-1-1.7-1-3,0.3
		c-2.2,2-4.5,4.1-6.7,6.2c-1.7,1.5-1.8,1.5-3.7,0.4c-2.6-1.5-5.1-3-7.6-4.5c-1.8-1-1.8-1-3.2,0.3c-2.2,2-4.4,4-6.5,6
		c-1.7,1.5-1.9,1.6-3.9,0.4c-2.6-1.5-5.3-3-7.8-4.7c-1.1-0.7-1.8-0.6-2.7,0.2c-2.3,2.2-4.7,4.4-7,6.5c-1.4,1.3-1.6,1.3-3.4,0.3
		c-2.6-1.5-5.1-3-7.6-4.5c-1.9-1.1-1.7-1.5-3.6,0.3c-2.1,2-4.3,4-6.5,6c-1.6,1.4-1.7,1.4-3.5,0.4c-2.5-1.4-5-2.9-7.4-4.4
		c-2.1-1.2-2.1-1.3-4,0.5c-2.1,1.9-4.1,3.8-6.2,5.7c-1.6,1.5-1.9,1.5-3.8,0.4c-2.3-1.4-4.7-2.8-7-4.1c-0.8-0.5-1.2-0.3-1.2,0.7
		c0,2,0,4,0,6c0,3.5-0.5,3.3,3.2,3.3C352.7,829.6,379.4,829.6,406.1,829.6z"/>
	<path fill="#EDC062" d="M492.8,818.3c0,5.4,0,10.9,0,16.3c0,2.6-0.1,2.4,2.5,2.4c10.3,0,20.6,0,30.9,0c4.5,0,7.2-2.4,7.7-6.9
		c0.1-0.7,0.1-1.4,0.1-2.2c0-9.4,0-18.9,0-28.3c0-1.4-0.1-2.7-0.4-4.1c-1.1-6.7-10-12.9-17.3-6.4c-1.2,1.1-2.4,2.1-3.6,3.2
		c-4,3.7-8.7,5.9-14,6.9c-1.4,0.2-2.9,0.4-4.3,0.5c-1.4,0.1-1.7,0.7-1.7,1.9C492.8,807.2,492.8,812.8,492.8,818.3z"/>
	<path fill="#CED8DC" d="M406.5,832.5c-27,0-53.9,0-80.9,0c-3,0-3.1,0.1-2.9,3.1c0.1,0.9,0.3,1.4,1.3,1.3c0.4,0,0.8,0,1.2,0
		c54.1,0,108.1,0,162.2,0c2.5,0,2.5,0,2.5-2.5c0-1.9,0-1.9-1.9-1.9c-0.6,0-1.3,0-1.9,0C459.6,832.5,433,832.5,406.5,832.5z"/>
	<path fill="#EDC062" d="M919,139.5c0.6,0.7,0.9,1.4,0.9,2.4c0,9.2,0,18.4,0,27.6c0,0.3,0,0.6-0.1,1c-0.2,0.8-0.7,1.3-1.5,1.2
		c-0.7-0.1-1.2-0.5-1.2-1.3c0-0.5,0-1,0-1.4c0-8.9,0-17.7,0-26.6c0-1,0.1-1.9,0.5-2.8C918,139.5,918.5,139.5,919,139.5z"/>
	<path fill="#151D38" d="M384.5,688.6c-27.6,0-55.2,0-82.8,0c-0.5,0-1,0-1.4,0c-1,0.1-1.6-0.2-1.6-1.4c0-1.2,0.5-1.5,1.6-1.5
		c7.8,0,15.7,0,23.5,0c3.4,0,6.9,0,10.3,0c0.3,0,0.7,0.1,0.8-0.3c0.1-0.4-0.2-0.5-0.5-0.7c-10.5-6.8-16-16.9-18.9-28.7
		c-3.2-13.3-2.5-26.3,2.6-39.1c3-7.5,7.3-14,13.9-18.9c5-3.8,10.7-5.7,17-5.6c7.8,0,15.5,0,23.3,0.1c1.7,0,2.5-0.6,3.3-2
		c9.4-18.8,18.9-37.6,28.3-56.3c0.2-0.4,0.5-0.8,0.6-1.3c0.4-1.1,1-1.3,2-0.7c1.5,0.8,3.1,1.6,4.8,2.2c1.2,0.5,1.3,1,0.8,2.2
		c-1.9,4.1-3.7,8.3-5.5,12.5c-1,2.2-1.9,4.4-2.9,6.6c-0.1,0.3-0.3,0.6-0.1,0.9c0.3,0.3,0.6,0.1,0.9,0c7.2-2.2,12.6,0.9,17.2,6.1
		c1,1.1,1.7,2.5,2.4,3.9c1.7,3.6,3.7,7.1,6.2,10.3c0.1,0.2,0.3,0.4,0.4,0.6c0.9,1.5,0.5,2.5-1.2,2.7c-1.5,0.2-3,0.3-4.5,0.4
		c-3,0.3-5.9,1.2-8.9,1.9c-3.4,0.8-6.8,0.7-10.2-0.3c-4-1.3-7.3-3.6-9.1-7.6c-0.2-0.4-0.3-0.8-0.7-0.8c-0.2,0-0.4,0.5-0.5,0.8
		c-2.4,5.6-4.9,11.1-7.3,16.7c-0.5,1.2-0.4,1.4,1,1.4c3.4,0,6.9,0,10.3,0c6.8,0,13.6,0,20.4,0c7.9-0.1,14.5,2.9,20.1,8.3
		c7.3,6.9,11.4,15.6,13.5,25.2c3.1,14.1,2.1,27.8-4,41c-3.3,7.3-8.1,13.4-14.9,17.7c-0.2,0.1-0.4,0.2-0.6,0.4
		c-0.1,0.1-0.2,0.2-0.2,0.4c0,0.3,0.3,0.3,0.5,0.3c0.6,0,1.3,0,1.9,0c10.4,0,20.8,0,31.2,0c0.6,0,1.1,0,1.7,0
		c1.1-0.1,1.5,0.3,1.5,1.5c0,1.3-0.7,1.4-1.7,1.4c-0.4,0-0.8,0-1.2,0C440,688.6,412.3,688.6,384.5,688.6z"/>
	<path fill="#C47659" d="M373.8,685.7c3.8,0,7.7,0,11.5,0c1.6,0,1.7-0.1,0.9-1.6c-0.2-0.4-0.4-0.9-0.7-1.3c-1.3-2.4-2.5-4.8-3.9-7.2
		c-0.5-0.9-0.3-1.4,0.6-1.9c1.3-0.7,1.4-0.7,2.2,0.7c1.8,3.2,3.5,6.5,5.2,9.7c0.5,1,1.1,1.5,2.4,1.5c7-0.1,14.1,0,21.1,0
		c1.5,0,1.6-0.2,1-1.5c-0.1-0.3-0.3-0.6-0.5-0.8c-4.3-8-8.6-16.1-12.9-24.1c-2.9-5.5-5.9-11-8.8-16.5c-0.8-1.5-0.8-1.5,0.4-2.2
		c1-0.6,1.5-0.4,2,0.6c1.7,3.3,3.5,6.5,5.2,9.7c5.9,10.9,11.7,21.8,17.6,32.8c0.8,1.4,1.5,2.1,3.3,2.1c7-0.1,12.8-3,17.8-7.8
		c6.4-6.2,10-14,12.2-22.5c0.2-0.9,0-1.7-0.4-2.5c-0.9-1.6-1.7-3.2-2.6-4.9c-1.8-3.3-3.6-6.6-5.3-9.9c-0.2-0.4-0.7-0.8-0.4-1.3
		c0.4-0.6,1.1-0.9,1.8-1.1c0.7-0.1,0.9,0.6,1.1,1c1.3,2.5,2.6,4.9,4,7.4c0.7,1.3,1.4,2.5,2,3.8c0.1,0.3,0.4,0.6,0.7,0.5
		c0.2-0.1,0.3-0.5,0.4-0.8c0.1-0.2,0.1-0.5,0.1-0.7c1-11.8-0.6-23.1-6.2-33.7c-3.3-6.3-7.8-11.5-14.1-15c-2.6-1.4-5.3-2.2-8.1-2.7
		c-0.4-0.1-0.9-0.2-1.1,0.1c-0.2,0.3,0.1,0.7,0.3,1.1c0.8,1.4,1.6,2.8,2.3,4.2c2.9,5.1,5.7,10.2,8.6,15.3c0.6,1,0.3,1.5-0.6,2.1
		c-1.3,0.8-1.6,0-2.1-0.9c-3.8-6.8-7.6-13.5-11.3-20.3c-0.7-1.3-1.5-1.8-3-1.8c-5.3,0.1-10.6,0-15.8,0c-2.6,0-2.6,0-1.4,2.4
		c3,5.6,5.9,11.1,9,16.7c0.5,0.9,0.6,1.5-0.5,2.1c-1,0.5-1.6,0.5-2-0.6c-0.1-0.4-0.4-0.7-0.6-1.1c-3.2-5.9-6.4-11.8-9.5-17.8
		c-0.6-1-1.1-1.8-2.5-1.7c-10.2,0.1-20.5,0-30.7,0c-0.4,0-0.9-0.2-1.1,0.2c-0.2,0.5,0.4,0.6,0.7,0.8c1.3,0.9,2.7,1.8,3.9,2.8
		c6.2,5.2,10.2,11.8,13,19.3c4,11.1,4.9,22.5,2.7,34c-2.5,13.1-7.9,24.6-19.7,32.2c-0.3,0.2-0.6,0.3-0.6,0.7
		c0.1,0.4,0.5,0.3,0.8,0.3C366.1,685.7,369.9,685.7,373.8,685.7z"/>
	<path fill="#C47659" d="M379.8,639.3c-0.2-4.7-0.7-9.3-1.9-13.8c-2.2-8.6-5.9-16.4-12.4-22.6c-10.1-9.7-23.4-10-33.9-0.8
		c-3.1,2.8-5.8,6-7.8,9.7c-9.4,17.8-9.8,35.9-1.7,54.2c2.6,5.8,6.3,10.7,11.4,14.5c4.1,3.1,8.7,5,13.9,5.1c7.9,0.1,14.2-3.3,19.4-9
		C376.6,666.1,379.6,653.2,379.8,639.3z"/>
	<path fill="#249A4B" d="M411.4,579.8c1.4,0,2.7-0.1,4-0.5c3.3-0.9,6.6-1.8,10.1-2c0.7-0.1,1.1-0.4,0.6-1c-2.3-3.2-3.8-6.8-5.7-10.2
		c-1.8-3.3-4.6-5.5-8.1-6.7c-3.9-1.4-7.4-0.5-10.3,2.4c-1.1,1.1-1,1.3,0.5,1.9c4.4,1.5,8.6,3.4,12.5,5.9c0.5,0.3,0.9,0.6,1.4,0.9
		c0.8,0.6,0.9,1.3,0.4,2.1c-0.5,0.8-1.3,0.8-2.1,0.4c-0.5-0.3-0.9-0.6-1.4-0.9c-3.8-2.3-7.9-4.2-12.1-5.7c-1.6-0.5-1.8-0.4-2.1,1.2
		c-0.7,3.7,0.5,6.8,3.3,9.2C404.9,578.9,408,579.8,411.4,579.8z"/>
	<path fill="#C47659" d="M381.4,592.4c2.2,0.6,3.2-0.6,4.2-2.9c6-13.9,12.1-27.8,18.1-41.7c1.5-3.4,3-6.9,4.5-10.3
		c0.4-0.9,0-1.3-0.7-1.7c-0.8-0.4-1.2-0.1-1.5,0.5c-0.3,0.6-0.6,1.1-0.9,1.7c-8.6,17.2-17.3,34.4-25.9,51.6
		C377.8,592.5,377.4,592.5,381.4,592.4z"/>
	<path fill="#151D38" d="M965.6,591.7c-24,0-48,0-72,0c-0.5,0-1,0-1.4,0c-1.6-0.1-1.8-0.3-1.7-1.8c0-0.8,0.4-1.2,1.2-1.2
		c0.6,0,1.3,0,1.9,0c17.8,0,35.5,0,53.3,0c0.5,0,1,0,1.4,0c2,0,2,0,1.3-2c-0.8-2.1-1.6-4.2-2.4-6.3c-0.6-1.6-0.6-1.6-2.1-0.8
		c-1.6,0.9-3.3,1.2-5.1,0.7c-2.6-0.8-4.2-2.7-4.5-5.4c-0.1-1.2-0.4-1.8-1.6-2.2c-2.6-0.9-4.1-3.3-4.1-5.9c0-2.6,1.5-5,4.2-5.9
		c1.3-0.4,1.7-1,1.8-2.3c0.3-2.5,1.9-4.2,4.3-5c2.5-0.8,4.6-0.2,6.4,1.6c0.9,1,1.6,1.3,3,0.9c2.6-0.7,4.9,0.2,6.5,2.4
		c1.6,2.2,1.6,4.7,0.2,7c-0.5,0.9-0.8,1.5-0.1,2.5c2.5,3.9-0.1,9.5-5.1,9.6c-1.4,0-1.5,0.2-1,1.5c1,2.7,2.1,5.4,3,8.1
		c0.4,1,0.9,1.3,1.9,1.3c3.1-0.1,6.2,0,9.4,0c2.6,0,2.8,0.5,2.1-2.6c-1.1-4.8-2.2-9.5-3.3-14.3c-1.3-5.5-2.5-11.1-3.8-16.6
		c-0.5-2.2-0.5-2.2-2.8-2.5c-7.2-0.9-12.7-4.5-16.5-10.6c-0.3-0.5-0.7-1.1-0.9-1.7c-0.8-1.8-0.3-2.7,1.6-2.6c5,0.1,9.6,1.3,13.7,4.3
		c0.6,0.4,1.3,1.5,1.9,1.1c0.6-0.4-0.1-1.5-0.3-2.2c-0.4-1.8-0.8-3.6-1.2-5.4c-0.2-0.9-0.6-1-1.3-0.5c-0.9,0.6-1.8,1-2.9,1.1
		c-3.6,0.4-6.8-2.1-7.1-5.9c-0.1-1.2-0.3-1.8-1.5-2.3c-2.7-1.1-4-3.5-3.8-6.3c0.2-2.7,1.8-4.7,4.6-5.5c1-0.3,1.6-0.6,1.7-1.8
		c0.4-2.7,2.1-4.4,4.8-5.1c2.6-0.6,4.8,0.2,6.4,2.3c0.7,0.9,1.3,1.1,2.4,0.8c2.8-0.6,5.1,0.3,6.7,2.7c1.6,2.5,1.4,5-0.3,7.4
		c-0.6,0.8-0.5,1.3-0.1,2.1c2.3,4.1-0.6,9.5-5.5,9.4c-1,0-1.4,0.2-1.1,1.3c0.6,2.3,1.1,4.7,1.6,7c0.1,0.2,0.1,0.5,0.4,0.5
		c0.3,0.1,0.4-0.2,0.5-0.4c0.2-0.4,0.3-0.7,0.5-1.1c2-4.8,5.6-8.1,10-10.7c0.3-0.2,0.7-0.4,1.1-0.5c1.3-0.4,2,0.1,2.1,1.4
		c0.1,0.8,0,1.6-0.1,2.4c-0.6,7.4-4,13.2-10.2,17.3c-1.9,1.2-1.9,1.3-1.4,3.4c2.4,10.7,4.9,21.3,7.3,32c0.4,1.9,0.5,1.9,2.6,1.9
		c0.2,0,0.5,0,0.7,0c2.5,0,2.3,0.1,2.5-2.3c0.9-11.8,1.9-23.6,2.8-35.4c0.5-6.5,1-13.1,1.6-19.6c0-0.4,0.1-0.8,0.1-1.2
		c0.1-0.7-0.2-0.9-1-0.9c-6.3,0-8.5-2.8-7.1-8.9c0.2-0.9-0.2-1.3-0.7-1.8c-1.3-1.4-2-3.1-1.8-5c0.3-3.6,3.2-6.2,6.9-5.8
		c1.2,0.1,1.8-0.1,2.5-1.2c1.5-2.3,3.8-3.2,6.4-2.7c2.5,0.4,4.2,2,4.9,4.4c0.3,1.3,0.9,1.6,2.1,1.8c2.7,0.5,4.4,2.2,5,4.9
		c0.5,2.7-0.3,5-2.6,6.5c-1.1,0.7-1.4,1.3-1.4,2.6c0.2,4.9-3.9,7.8-8.5,6.3c-1.5-0.5-1.5-0.5-1.7,1c-0.5,5.2-0.9,10.3-1.3,15.5
		c-0.8,9.3-1.5,18.6-2.2,28c-0.3,4.1-0.6,8.3-1,12.4c-0.1,1.1,0.3,1.5,1.3,1.4c1.6,0,3.2,0,4.8,0c2.2,0,2.2,0,2.8-2
		c1.5-4.7,3-9.4,4.5-14.2c0.6-2,1.2-4,1.9-5.9c0.3-0.9,0.1-1.2-0.9-1.3c-3.4-0.4-5.3-2-6-4.9c-0.4-1.5-0.2-2.9,0.5-4.2
		c0.5-0.9,0.5-1.5-0.2-2.3c-1.9-2.1-2.1-4.6-0.8-7.1c1.3-2.5,3.6-3.6,6.4-3.2c1.3,0.2,2.1,0.1,3-1.1c1.6-2.2,4-2.7,6.5-2
		c2.4,0.6,4.1,2.3,4.5,4.8c0.2,1.3,0.8,1.7,1.9,2c2.6,0.8,4.2,2.6,4.5,5.3c0.3,2.8-0.7,5.1-3.3,6.3c-1.1,0.5-1.4,1.2-1.4,2.3
		c-0.2,5.1-5.1,7.8-9.6,5.2c-1.5-0.8-1.5-0.8-2,0.7c-2.1,6.5-4.1,12.9-6.2,19.4c-0.6,2.1-0.6,2.1,1.6,2.1c15.1,0,30.2,0,45.3,0
		c0.6,0,1.3,0,1.9,0c1.1-0.1,1.6,0.3,1.5,1.5c0,0.9-0.2,1.6-1.3,1.5c-0.6-0.1-1.3,0-1.9,0C1013.4,591.7,989.5,591.7,965.6,591.7z"/>
	<path fill="#249A4B" d="M945.3,519.1c-2.4-0.2-4.1,1.1-4.2,3.1c-0.1,2.1,1.7,3.6,4.2,3.5c0.1,0,0.2-0.1,0.2-0.1
		c1.6,0,2.1,0.8,1.6,2.3c-0.1,0.3-0.3,0.6-0.4,0.9c-0.7,1.8,0.1,3.6,1.9,4.3c1.8,0.7,3.6-0.1,4.4-1.8c0.4-0.8,0.2-2,1.4-2.3
		c1.2-0.3,1.6,0.8,2.3,1.4c1.5,1.2,3.5,1,4.7-0.4c1.2-1.4,1.1-3.2-0.2-4.6c-0.6-0.7-1.8-0.9-1.8-2.1c0-1.4,1.4-1.4,2.1-2
		c1.4-1.2,1.7-3,0.7-4.5c-1-1.6-3-2-4.6-1c-0.5,0.3-0.9,0.7-1.3,1c-0.7,0.5-1.4,0.2-1.9-0.4c-0.3-0.4-0.2-0.9-0.4-1.4
		c-0.5-2.1-2.2-3.2-4-2.8c-2,0.5-3,2.2-2.5,4.4C948,519,947.7,519.3,945.3,519.1z"/>
	<path fill="#E8384A" d="M987.2,510.3c0-1.9-1.4-3.4-3.1-3.6c-1.6-0.1-3.2,1-3.6,2.6c-0.1,0.5,0,1-0.1,1.4c-0.3,1.1-1.1,1.6-2.2,1.1
		c-0.4-0.2-0.6-0.5-1-0.7c-1.8-0.9-3.8-0.4-4.7,1.3c-0.9,1.8-0.1,3.9,1.8,4.8c2.7,1.2,2.7,1.3,0.8,3.5c-0.1,0.1-0.1,0.1-0.2,0.2
		c-1.2,1.5-1.1,3.5,0.2,4.7c1.3,1.2,3.2,1.1,4.6,0c0.7-0.6,0.9-1.8,2.1-1.7c1.5,0.1,1.3,1.4,1.8,2.2c1,1.6,2.8,2.1,4.4,1.3
		c1.7-0.8,2.4-2.6,1.6-4.4c-0.3-0.8-1.4-1.5-0.8-2.6c0.6-1.1,1.7-0.7,2.6-0.9c1.8-0.5,2.9-2.3,2.5-4.1c-0.4-1.8-2.1-2.9-4-2.5
		c-0.4,0.1-0.7,0.3-1.1,0.4c-1.4,0.3-2.1-0.4-1.9-1.9C987,511,987.1,510.6,987.2,510.3z"/>
	<path fill="#7DA6ED" d="M992.7,562.4c0.8,0,1.4-0.3,2-0.7c0.8-0.5,1.1-1.7,2.3-1.6c1.4,0.2,1.2,1.5,1.6,2.4c0.7,1.4,2.1,2.2,3.5,2
		c1.4-0.2,2.6-1.2,2.8-2.5c0.2-1,0-1.8-0.4-2.8c-0.8-1.6-0.3-2.4,1.5-2.5c0.6,0,1.3,0,1.9-0.3c1.5-0.7,2.3-2.4,1.9-4
		c-0.4-1.6-2.1-2.7-3.9-2.4c-2.8,0.4-2.9,0.3-2.4-2.6c0.2-0.9,0.1-1.7-0.4-2.5c-0.8-1.2-1.8-1.8-3.2-1.7c-1.6,0.2-2.6,1.2-3,2.7
		c-0.8,2.6-0.9,2.6-3.3,1.2c-0.1-0.1-0.3-0.2-0.4-0.2c-1.7-0.9-3.6-0.3-4.6,1.3c-0.9,1.6-0.5,3.4,1.1,4.4c0.4,0.3,0.9,0.4,1.3,0.6
		c1.3,0.7,1.4,1.7,0.4,2.6c-0.4,0.4-0.9,0.7-1.3,1.1c-0.9,1.1-1,2.3-0.4,3.6C990.2,561.8,991.3,562.4,992.7,562.4z"/>
	<path fill="#EFD2E6" d="M936.6,570.2c2.7-0.1,2.8,0.2,2,2.8c0,0.2-0.1,0.3-0.1,0.5c-0.4,1.8,0.5,3.4,2.3,4c1.6,0.6,3.4-0.3,4.1-1.9
		c0.4-0.9,0.1-2.2,1.4-2.6c1.3-0.4,1.8,0.9,2.6,1.4c1.6,0.9,3.4,0.6,4.5-0.9c1-1.4,0.9-3.1-0.3-4.4c-0.3-0.3-0.8-0.6-1.1-0.9
		c-1.2-0.9-1.2-1.8,0-2.7c0.3-0.2,0.7-0.4,1-0.6c1.5-1.2,1.7-3.2,0.6-4.7c-1.1-1.5-3.1-1.8-4.7-0.6c-2.5,1.7-2.5,1.8-3.7-1.1
		c-0.6-1.3-1.5-2-2.9-2.2c-1.4-0.1-2.5,0.5-3.2,1.7c-0.6,1-0.4,2.1-0.1,3.2c0.6,1.9,0,2.5-1.9,2.3c-2.5-0.2-4.1,1-4.2,3.1
		C932.7,568.9,934.1,570.3,936.6,570.2z"/>
	<path fill="#A5D0B7" d="M943.9,541.1c-0.1,0-0.5,0-0.7,0.2c-0.2,0.3,0.1,0.6,0.2,0.8c3.2,4.4,7.4,6.9,12.7,7.7
		c0.3,0,0.7,0.2,0.8-0.2c0.1-0.2-0.1-0.5-0.2-0.7C953.6,544.7,949.5,542,943.9,541.1z"/>
	<path fill="#A5D0B7" d="M962,547.4c-0.1,0.5-0.2,0.9,0.1,1c0.3,0.1,0.6-0.1,0.9-0.3c4.3-3.1,6.8-7.3,7.7-12.5
		c0-0.3,0.1-0.8-0.1-0.9c-0.4-0.2-0.7,0.1-1.1,0.3C965.3,538.2,962.7,542.4,962,547.4z"/>
	<path fill="#7DA6ED" d="M642.6,142.6c38.9,0.1,69.8,28.2,76.7,63.2c0.4,2,0.7,3.9,1,5.9c0.2,1.3,0.3,1.4,1.4,0.6
		c3.8-2.4,7.8-4.4,12.1-5.8c27.5-9,56.8,8.6,61.9,37.1c0.5,3,0.8,6,0.8,9.1c0,1.4,0.1,1.5,1.3,0.8c3.4-1.8,7-2.6,10.8-2.9
		c13-0.7,24.8,9.9,25.5,22.9c0.1,2.6,0,5.1-0.6,7.6c-0.1,0.5-0.2,0.9-0.5,1.4c-0.3,0.6-0.9,1-1.6,0.8c-0.8-0.2-1.2-0.8-1.1-1.6
		c0.1-0.6,0.3-1.2,0.4-1.9c1.8-8.8-1.9-17.6-9.3-22.5c-7.4-4.9-17-4.8-24.4,0.3c-0.1,0.1-0.3,0.2-0.4,0.3c-0.8,0.6-1.5,1.6-2.7,0.9
		c-1.1-0.7-0.7-1.9-0.6-2.9c0.8-10.9-1.8-20.8-8.1-29.7c-14.6-20.7-43.5-25.2-63.7-10c-0.8,0.6-1.5,1.6-2.7,1.2
		c-1.4-0.5-1.1-1.8-1.2-2.9c-1.4-14.6-6.4-27.8-15.5-39.4c-12.6-16.1-29-26-49.2-28.8c-24.5-3.3-46,3.7-63.9,21
		c-11.9,11.5-18.9,25.6-21.7,41.8c-0.7,3.8-0.8,7.6-1,11.5c0,0.5,0,1-0.2,1.4c-0.2,0.5-0.8,0.8-1.4,0.7c-0.8-0.2-1.3-0.7-1.3-1.5
		c0-1.4,0-2.9,0.1-4.3c1.2-18.5,7.8-34.8,20.4-48.6c12.9-14.2,29-22.6,48-25.2C635.2,142.8,638.6,142.8,642.6,142.6z"/>
	<path fill="#151D38" d="M442.6,757.3c-9.7,0-19.3,0-29,0c-0.6,0-1.1,0-1.7,0c-1,0.1-1.6-0.2-1.6-1.4c0-1.2,0.5-1.5,1.6-1.5
		c3.6,0,7.2,0.1,10.8,0c1.1,0,2.3,0.4,3.4-0.3c-0.7-0.9-1.7-1.3-2.6-2c-2.4-1.7-4.8-3.5-6.6-5.8c-0.8-1-1.4-2-1.5-3.2
		c-0.2-2.1,1.1-3.5,3.2-3.6c1.3,0,2.5,0.5,3.7,1c0.8,0.4,1.4,0.6,1.1-0.7c-0.2-0.9-0.2-1.9-0.2-2.9c0-1.5,0.5-2.7,1.9-3.3
		c1.3-0.6,2.5-0.2,3.6,0.5c0.7,0.4,1,1.6,1.8,1.3c0.7-0.2,0.7-1.3,1.1-2c0.7-1.2,1.7-2,3.1-1.9c1.5,0,2.5,1,3.1,2.3
		c0.3,0.7,0.5,1.9,1,2.1c0.7,0.2,1.1-0.9,1.7-1.4c1.2-1,2.5-1.5,4-0.9c1.6,0.7,2,2.2,2.1,3.7c0.1,1.2-0.7,2.3-0.2,3.5
		c1-0.4,2.1-0.8,3.1-1.1c1.5-0.4,2.9-0.3,4,0.9c1.1,1.3,0.9,2.8,0.2,4.3c-0.9,1.7-2.2,2.9-3.6,4.2c-1.9,1.7-4,3.2-6.2,4.5
		c-0.2,0.1-0.4,0.3-0.4,0.5c0,0.5,0.5,0.4,0.7,0.4c2.1,0,4.2,0,6.2,0c7.6,0,15.2,0,22.8,0c1.8,0,1.9,0.1,1.9,1.6
		c0,0.9-0.3,1.3-1.3,1.3c-0.6,0-1.3,0-1.9,0C462.1,757.3,452.3,757.3,442.6,757.3z"/>
	<path fill="#151D38" d="M872.1,339.1c7,0.1,14.3,3.2,20.3,9.3c0.4,0.4,0.8,1.3,1.4,1.1c0.5-0.2,0.4-1.1,0.5-1.8
		c2.9-20.5,13.5-35.7,31.7-45.6c7-3.8,14.5-5.8,22.4-6.4c16.7-1.2,31.5,3.6,44,14.7c11.6,10.3,18.2,23.3,19.7,38.8
		c0.2,1.8,0.4,3.5,0.3,5.3c-0.1,1.4-1.2,2.2-2.2,1.6c-0.8-0.5-0.8-1.3-0.8-2.1c-0.1-2.6-0.3-5.1-0.6-7.6
		c-3.6-23.9-22.4-43.1-46.3-47.1c-30.4-5.1-59.5,15.4-64.8,45.7c-0.5,3-0.9,6-0.9,9.1c0,0.6,0.1,1.3-0.5,1.8
		c-0.7,0.7-1.5,0.6-2.1-0.1c-0.5-0.5-0.8-1.2-1.2-1.8c-6.3-9.2-17.3-13.7-28-11.4c-10.9,2.3-19.4,11.1-21.3,22.1
		c-0.2,1.3-0.2,2.7-0.4,4.1c-0.1,1.4-0.7,2-1.7,1.9c-1.1-0.2-1.4-1-1.4-1.9c0.1-4,0.9-7.9,2.5-11.6
		C847.7,346.2,858.5,339.1,872.1,339.1z"/>
	<path fill="#151D38" d="M945.9,695.8c-16.1,0-32.1,0-48.2,0c-3.1,0-3.6-0.6-3.1-3.7c1.7-9.9,12.6-14.9,21.3-9.8
		c1.9,1.2,1.9,1.2,2.2-1.2c1-8.7,7.6-15.4,16.2-16.4c8.6-1,16.5,4.1,19.4,12.5c0.1,0.4,0.2,0.8,0.3,1.1c0.1,0.5,0.5,0.6,0.9,0.3
		c0.3-0.2,0.5-0.4,0.7-0.6c6.8-6.4,18.5-3.1,20.4,6.6c0.3,1.5,0.3,1.5,1.7,0.5c4.8-3.6,10.6-3.6,15.1-0.2c2.8,2.2,4.2,5.1,4.6,8.6
		c0.2,1.6-0.4,2.2-1.9,2.3c-0.6,0-1.1,0-1.7,0C977.9,695.8,961.9,695.8,945.9,695.8z"/>
	<path fill="#A5D0B7" d="M935.5,692.9c11.6,0,23.2,0,34.8,0c0.6,0,1.3,0,1.9,0c0.8,0,1.2-0.4,1.2-1.2c0-1.8,0.1-3.5,0-5.3
		c-0.2-4.5-3.8-8.3-8.3-8.8c-4.3-0.5-8.7,2.4-10,6.6c-0.2,0.6-0.3,1.3-0.3,1.9c-0.1,1.2-1,1-1.7,1.1c-1,0-1.2-0.5-1.2-1.3
		c0-1.3,0-2.6-0.1-3.8c-0.4-7.5-6.3-13.6-13.9-14.5c-7.2-0.8-14.4,4.3-16.3,11.4c-0.5,1.8-0.7,3.6-0.6,5.5c0,1.2,0,2.4,0,3.6
		c0,0.7-0.4,1.2-1.1,1.4c-0.6,0.2-1.1-0.1-1.5-0.6c-0.4-0.5-0.7-1-1.1-1.5c-5.4-6.5-15.7-5-18.9,2.8c-1,2.5-0.8,2.8,1.9,2.8
		C912,692.9,923.7,692.9,935.5,692.9z"/>
	<path fill="#A5D0B7" d="M985.3,692.9c2.6,0,5.1,0,7.7,0c1.5,0,1.6-0.2,1.2-1.5c-1.2-3.6-4.9-6.2-8.8-6.2c-3.8,0.1-7.4,2.7-8.5,6.3
		c-0.4,1.2-0.2,1.4,1.1,1.4C980.3,693,982.8,692.9,985.3,692.9z"/>
	<path fill="#AEDEF8" d="M344.3,327.7c24.5,0,42.6,14.9,46.7,35.6c0.6,2.8,0.6,2.8,3.1,1.5c17.3-8.8,38.3,3,39.6,22.3
		c0,0.1,0,0.2,0,0.2c0.1,1.6,0.1,1.6,1.6,1.2c0.7-0.2,1.4-0.4,2.1-0.6c10.2-2.3,19.4,7.1,17,17.2c-0.1,0.4-0.2,0.8-0.3,1.1
		c-0.3,0.7-1,0.8-1.6,0.7c-0.8-0.1-1.1-0.7-1.1-1.4c0-0.6,0.2-1.3,0.3-1.9c0.6-4.7-1.1-8.5-5-11.2c-3.9-2.6-7.9-2.6-12-0.3
		c-0.3,0.2-0.5,0.3-0.8,0.5c-0.7,0.5-1.5,1.1-2.4,0.5c-0.8-0.5-0.6-1.4-0.6-2.2c0.4-7.5-1.9-14-7.3-19.3c-8.2-8-20.9-9.2-30.4-2.8
		c-0.5,0.3-0.9,0.7-1.4,1c-1.6,1-2.5,0.7-2.9-1.2c-0.3-1.5-0.4-3-0.7-4.5c-3.3-17.2-17-30.5-34.3-33.2
		c-22.7-3.5-44.1,12.5-47.3,35.3c-0.2,1.7-0.2,3.3-0.4,5c-0.1,1.4-0.6,2.1-1.6,2c-1.2-0.1-1.5-1-1.5-2.1c0.2-7.7,2-14.9,5.9-21.5
		C317.9,335.4,330.9,328.2,344.3,327.7z"/>
	<path fill="#151D38" d="M454.6,318.8c-1.8,0-3.7,0-5.5,0c-0.6,0-1.1,0-1.7-0.1c-0.7-0.1-1.1-0.6-1.2-1.3c0-0.9,0.5-1.3,1.2-1.5
		c0.5-0.1,1.1-0.1,1.7-0.1c2.9,0,5.8,0,8.6,0c1.8,0,1.9,0,1.8-1.8c-0.2-4.8,0.3-9.5,2-13.9c5.4-14.4,15.7-23,31.1-24.7
		c14.9-1.6,26.6,4.3,35.1,16.7c1.4,2.1,0.9,2.1,3.3,1.1c16.1-6.3,33.3,3.8,35.6,20.9c0.2,1.3,0.6,1.8,1.9,1.7c3-0.1,5.9,0,8.9,0
		c0.6,0,1.1,0,1.7,0c0.8,0.1,1.3,0.6,1.4,1.4c0.1,0.9-0.5,1.3-1.3,1.5c-0.5,0.1-1,0.1-1.4,0.1c-3.8,0-7.5,0-11.3,0
		c-2.3,0-2.5-0.3-2.7-2.6c-0.7-12.2-10.6-21.8-22.7-22c-3.5-0.1-6.8,0.7-10,2.2c-0.6,0.3-1.3,0.7-1.9,0.9c-0.9,0.4-1.7,0.2-2.3-0.7
		c-0.3-0.5-0.5-1-0.8-1.5c-10.6-18.4-35.2-22.9-51.3-9.1c-9.1,7.8-13.2,17.8-11.9,29.9c0.2,2.4-0.1,2.9-2.5,2.9
		C458.4,318.9,456.5,318.8,454.6,318.8z"/>
	<path fill="#151D38" d="M849.7,649.3c-7,0-13.9,0-20.9,0c-0.6,0-1.1,0-1.7,0c-1,0.1-1.4-0.3-1.4-1.4c0-1.1,0.4-1.5,1.5-1.5
		c6,0,12,0,18,0c2.6,0,2.6,0,1.5-2.4c-1.3-2.8-2.6-5.7-3.8-8.5c-0.2-0.4-0.3-0.7-0.5-1.1c-0.6-1.5-0.4-2.3,0.4-2.7
		c0.9-0.4,1.5,0.1,2.2,1.6c0.7,1.4,1.2,2.8,1.9,4.1c0.3,0.6,0.3,1.7,1.1,1.5c0.5-0.1,0.2-1.1,0.2-1.7c0-3,0-5.9,0-8.9
		c0-0.6,0-1.1,0-1.7c0-0.8,0.4-1.4,1.3-1.4c1,0,1.5,0.5,1.5,1.5c0,0.5,0,1,0,1.4c0,3,0,5.9,0,8.9c0,0.6-0.4,1.7,0.4,1.9
		c0.5,0.1,0.7-0.9,0.9-1.5c0.7-1.4,1.2-2.8,1.9-4.1c0.2-0.4,0.4-0.9,0.7-1.2c0.4-0.5,0.9-0.6,1.5-0.4c0.6,0.2,0.9,0.7,0.9,1.3
		c0,0.8-0.4,1.4-0.7,2c-1.5,3.3-3,6.7-4.5,10c-0.5,1.2-0.4,1.4,0.9,1.4c5.6,0,11.2,0,16.8,0c0.8,0,1.6,0,2.4,0
		c1-0.1,1.5,0.2,1.5,1.3c0,1.1-0.3,1.6-1.5,1.6C864.9,649.3,857.3,649.3,849.7,649.3C849.7,649.3,849.7,649.3,849.7,649.3z"/>
	<path fill="#EDC062" d="M918.3,215.4c-6.9,0.4-14.6-5.7-14.6-14.6c0-8.2,6.6-14.7,14.8-14.7c8.1,0,14.4,6.5,14.5,14.7
		C933.2,209.6,925.5,215.9,918.3,215.4z M918.2,212.5c5.9,0.4,11.8-4.8,11.9-11.5c0.1-5.9-4.7-11.9-11.7-12
		c-6.4-0.1-11.7,5.2-11.8,11.7C906.6,207.1,911.8,212.5,918.2,212.5z"/>
	<path fill="#151D38" d="M468.4,166c-0.5-0.1-0.9-0.2-1.4-0.2c-9.8-1.8-18.9,5-19.9,14.9c0,0.2,0,0.5-0.1,0.7
		c-0.2,1.8-1,2.2-2.6,1.5c-1.8-0.8-3.5-1.4-5.5-1.7c-6.7-1.2-15,2.6-18,10.5c-0.2,0.5-0.4,1-0.6,1.6c-0.3,0.9-0.9,1.3-1.8,1.1
		c-1.1-0.3-1.2-1.2-0.9-2.1c0.2-0.5,0.3-1.1,0.5-1.6c3.6-9.3,13.8-14.5,23.4-11.9c2.5,0.7,2.5,0.7,3.2-1.8c2.6-9.4,12.2-16.2,23-14
		c0.4,0.1,0.8,0.1,1.2,0.3c0.7,0.3,1.2,0.8,1,1.7C469.8,165.7,469.2,166,468.4,166z"/>
	<path fill="#151D38" d="M387.2,225.4c1.3-0.1,2.8,0.2,4.2,0.7c1,0.3,1.4,0.1,1.6-0.9c1.1-4.4,3.6-7.8,7.6-10.1
		c3.6-2.1,7.5-2.7,11.5-1.8c0.5,0.1,0.9,0.1,1.3,0.5c0.5,0.4,0.6,1,0.4,1.5c-0.2,0.5-0.5,0.9-1,0.9c-0.5,0-1.1,0-1.7-0.1
		c-7.6-1.3-14.4,3.5-15.6,11.2c0,0.2-0.1,0.5-0.1,0.7c-0.4,2.2-0.9,2.6-3,1.6c-7.3-3.6-15.6,0.6-18.1,7.4c-0.6,1.7-1.2,2.2-2.2,1.9
		c-1-0.3-1.1-1.2-0.5-2.9C373.9,229.7,380.1,225.4,387.2,225.4z"/>
	<path fill="#151D38" d="M553.2,354.5c8.1,0,16.2,0,24.2,0c0.6,0,1.3,0,1.9,0.1c0.7,0.1,1.1,0.7,1.1,1.4c0,0.7-0.4,1.2-1.1,1.4
		c-0.5,0.1-1.1,0.1-1.7,0.1c-16.3,0-32.6,0-48.9,0c-2,0-2.7-0.4-2.6-1.6c0.1-1,0.6-1.3,2.6-1.4C536.9,354.5,545.1,354.5,553.2,354.5
		z"/>
	<path fill="#151D38" d="M478.7,198.4c1.1,0.1,2.2,0.2,3.3,0.4c2,0.4,2,0.4,2.7-1.7c0.8-2.3,2.1-4.3,3.8-6c3.6-3.4,8-4.5,12.8-3.9
		c0.5,0.1,1.1,0.3,1.6,0.5c0.7,0.3,0.9,0.9,0.7,1.6c-0.1,0.7-0.6,1.1-1.4,1.1c-0.4,0-0.8-0.1-1.2-0.2c-7.1-1.2-13.4,3.4-14.3,10.5
		c-0.3,2.4-0.8,2.8-3,1.9c-7-3.2-14.4,0.9-16.4,7c-0.1,0.4-0.3,0.8-0.5,1.1c-0.4,0.6-1,0.7-1.7,0.5c-0.6-0.2-0.9-0.7-0.8-1.3
		c0.1-0.6,0.2-1.3,0.5-1.8C467.1,202.3,472.6,198.5,478.7,198.4z"/>
	<path fill="#EDC062" d="M873.1,202.3c-4.2,0-8.5,0-12.7,0c-0.5,0-1,0-1.4,0c-1,0-1.7-0.5-1.7-1.5c0-1,0.8-1.3,1.7-1.3
		c0.5,0,1,0,1.4,0c8.5,0,17.1,0,25.6,0c0.6,0,1.3,0,1.9,0.1c0.7,0.1,1.2,0.5,1.3,1.2c0.1,0.8-0.4,1.4-1.2,1.5
		c-0.6,0.1-1.3,0.1-1.9,0.1C881.8,202.3,877.4,202.3,873.1,202.3z"/>
	<path fill="#EDC062" d="M917,245.9c0-4.2,0-8.5,0-12.7c0-0.5,0-1,0-1.4c0-1,0.4-1.8,1.5-1.7c0.9,0,1.4,0.7,1.4,1.6
		c0,0.4,0,0.8,0,1.2c0,8.7,0,17.4,0,26.1c0,0.6,0,1.3-0.1,1.9c-0.1,0.7-0.7,1-1.4,1c-0.7,0-1.2-0.4-1.3-1.1
		c-0.1-0.6-0.1-1.1-0.1-1.7C917,254.7,917,250.3,917,245.9z"/>
	<path fill="#EDC062" d="M963.6,202.3c-4.2,0-8.5,0-12.7,0c-0.3,0-0.6,0-1,0c-1.6-0.1-2.3-0.5-2.3-1.5c0-1,0.6-1.4,2.3-1.4
		c9.1,0,18.2,0,27.3,0c0.4,0,0.8,0,1.2,0.1c0.7,0.2,1.1,0.6,1.1,1.4c0,0.8-0.4,1.2-1.1,1.3c-0.6,0.1-1.3,0.1-1.9,0.1
		C972.2,202.3,967.9,202.3,963.6,202.3z"/>
	<path fill="#151D38" d="M426.2,228.4c1.4,0.5,2-0.5,2.7-1.8c1.8-3.4,5.6-5.1,9.3-4.5c0.5,0.1,0.9,0.2,1.3,0.5
		c0.5,0.4,0.5,1,0.4,1.6c-0.1,0.5-0.6,0.8-1.1,0.8c-0.5,0-1-0.1-1.4-0.1c-3.5-0.2-5.9,1.7-6.7,5.2c-0.4,2.1-0.8,2.3-2.7,1.6
		c-3.7-1.2-6.3-0.1-8.1,3.5c-0.1,0.1-0.1,0.3-0.2,0.4c-0.4,0.9-1.1,1.2-1.9,0.8c-1-0.4-1-1.2-0.7-2c0.8-2.3,2.2-4.1,4.4-5.2
		C422.9,228.6,424.3,228.2,426.2,228.4z"/>
	<path fill="#151D38" d="M390.8,177.4c1.5,0.6,2-0.4,2.7-1.7c1.8-3.5,5.6-5.2,9.5-4.5c1,0.2,1.7,0.6,1.8,1.6c0,0.9-0.8,1.3-2.1,1.3
		c-4.5-0.1-6.1,1.1-7.2,5.5c-0.4,1.5-0.9,1.8-2.4,1.3c-4.2-1.3-6.4-0.4-8.3,3.5c-0.5,0.9-1,1.5-2,1.2c-1.1-0.4-1-1.3-0.7-2.2
		C382.8,179.8,386.5,177.2,390.8,177.4z"/>
	<path fill="#151D38" d="M930,601.9c3.4,0,6.9,0,10.3,0c0.6,0,1.1,0,1.7,0c0.8,0.1,1.4,0.4,1.4,1.3c0.1,1-0.6,1.4-1.5,1.5
		c-0.6,0.1-1.1,0.1-1.7,0.1c-6.9,0-13.7,0-20.6,0c-0.7,0-1.4,0-2.1-0.2c-0.6-0.1-0.9-0.6-1-1.2c0-0.7,0.3-1.3,1-1.4
		c0.6-0.1,1.3-0.1,1.9-0.1C923,601.9,926.5,601.9,930,601.9z"/>
	<path fill="#EDC062" d="M941.9,223.1c0.9,0,1.3,0.5,1.7,0.9c4.6,4.6,9.2,9.2,13.9,13.9c0.2,0.2,0.3,0.3,0.5,0.5
		c0.4,0.6,0.5,1.2,0.1,1.8c-0.5,0.6-1.2,0.8-1.9,0.3c-0.5-0.4-1-0.8-1.4-1.3c-4.2-4.2-8.3-8.3-12.5-12.5c-0.4-0.4-0.9-0.9-1.3-1.4
		c-0.3-0.5-0.3-1.1,0.1-1.6C941.3,223.2,941.7,223,941.9,223.1z"/>
	<path fill="#EDC062" d="M896.2,224.5c-0.1,0.9-0.7,1.4-1.3,2c-4.1,4.1-8.1,8.1-12.2,12.2c-0.3,0.3-0.6,0.6-0.8,0.8
		c-1.3,1.2-2.2,1.4-2.9,0.6c-0.6-0.7-0.4-1.5,0.7-2.7c0.9-1,1.9-1.9,2.9-2.9c3.4-3.4,6.8-6.8,10.2-10.2c0.4-0.4,0.9-1,1.4-1.2
		C895.1,222.7,896.2,223.5,896.2,224.5z"/>
	<path fill="#EDC062" d="M958.3,162.3c0,0.7-0.4,1.2-0.9,1.6c-4.6,4.6-9.1,9.1-13.7,13.7c-0.3,0.3-0.7,0.7-1.2,0.8
		c-0.6,0.1-1.1,0-1.5-0.5c-0.4-0.5-0.4-1-0.1-1.6c0.2-0.3,0.4-0.5,0.6-0.7c4.6-4.6,9.1-9.1,13.7-13.7c0.3-0.3,0.7-0.7,1.1-0.9
		C957.3,160.8,958.2,161.4,958.3,162.3z"/>
	<path fill="#EDC062" d="M896.2,177.2c0,0.8-0.8,1.4-1.7,1.2c-0.7-0.1-1.1-0.6-1.6-1c-4.4-4.4-8.8-8.8-13.2-13.2
		c-0.2-0.2-0.3-0.3-0.5-0.5c-0.7-0.7-0.9-1.6-0.1-2.3c0.8-0.7,1.6-0.4,2.3,0.3c4.7,4.7,9.4,9.4,14.1,14.1
		C895.9,176.2,896.2,176.6,896.2,177.2z"/>
	<path fill="#151D38" d="M903.9,816.7c-0.3,0.8-1.1,0.9-1.7,1.3c-0.5,0.3-0.9,0.1-1.2-0.4c-0.4-0.7-0.8-1.4-1.1-2.1
		c-5.9-11-11.9-22.1-17.8-33.1c-0.2-0.3-0.3-0.6-0.4-0.9c-0.2-0.5-0.8-0.9-0.3-1.5c0.5-0.5,1.2-0.9,1.9-1c0.7-0.1,0.8,0.7,1,1.2
		c1.7,3.2,3.4,6.3,5.1,9.5c4.5,8.4,9.1,16.9,13.6,25.3C903.4,815.6,903.6,816.1,903.9,816.7z"/>
	<path fill="#151D38" d="M985,816.1c-0.7-0.1-0.8-0.6-1-1c-1.4-2.5-2.7-5-4.1-7.6c-1.2-2.3-2.5-4.6-3.7-6.9
		c-0.5-0.9-0.6-1.5,0.5-2.1c1-0.5,1.5-0.5,2.1,0.6c2.6,4.9,5.2,9.7,7.8,14.5c0.2,0.4,0.8,1,0.2,1.5
		C986.2,815.5,985.5,815.8,985,816.1z"/>
	<path fill="#151D38" d="M977.7,817.4c0.8-0.1,0.8,0.6,1.1,1.1c1.8,3.2,3.5,6.4,5.2,9.7c0.9,1.7,1.7,3.4,2.7,5
		c0.7,1.1-0.1,1.3-0.8,1.8c-0.8,0.5-1.3,0.6-1.9-0.4c-2.6-5-5.3-10-8-14.9C975.6,818.7,976.4,817.6,977.7,817.4z"/>
	<path fill="#151D38" d="M514.7,440.8c0-0.6,0.2-1.1,0.7-1.5c0.3-0.3,0.6-0.6,0.8-0.9c0.5-0.7,1.7-1.2,1.3-2
		c-0.4-0.9-1.5-1.4-2.3-2.1c-0.3-0.2-0.6-0.2-0.9,0c-0.2,0.2-0.5,0.4-0.7,0.7c-0.7,0.8-1.6,1.3-2.5,0.5c-1-0.8-0.6-1.8,0.2-2.5
		c1-1,0.6-1.6-0.3-2.3c-0.7-0.5-1.4-1.1-2-1.7c-0.6-0.6-0.6-1.3,0-1.9c0.5-0.6,1.2-0.8,1.9-0.2c0.8,0.6,1.7,1.2,2.4,1.9
		c0.7,0.6,1.2,0.6,1.8-0.2c0.3-0.4,0.6-0.8,1-1.1c0.7-0.7,0.9-1.3-0.1-1.9c-0.1-0.1-0.3-0.2-0.4-0.3c-1-1-1.2-1.8-0.5-2.5
		c0.9-0.9,1.7-0.4,2.5,0.2c1.5,1.1,1.5,1.1,2.8-0.4c0.5-0.6,1-1.2,1.6-1.8c0.6-0.6,1.3-0.7,1.9-0.2c0.8,0.6,0.8,1.4,0.3,2.1
		c-0.5,0.8-1.2,1.5-1.9,2.2c-1,0.9-0.7,1.6,0.3,2.2c0.1,0,0.1,0.1,0.2,0.2c1.5,1.2,1.5,1.3,3,0c0.7-0.6,1.4-0.9,2.1-0.3
		c0.9,0.7,0.8,1.4,0.2,2.3c-1.1,1.6-1,1.6,0.5,2.9c0.5,0.5,1.1,0.9,1.6,1.4c0.5,0.5,0.5,1.2,0.1,1.8c-0.5,0.7-1.2,0.9-1.9,0.4
		c-0.9-0.6-1.7-1.2-2.5-1.9c-0.7-0.7-1.3-0.8-1.9,0.1c-0.3,0.5-0.7,0.9-1.1,1.3c-0.6,0.6-0.5,1.1,0.2,1.6c0.3,0.2,0.6,0.5,0.9,0.8
		c0.6,0.6,0.7,1.3,0.2,2c-0.5,0.7-1.2,0.7-1.9,0.4c-0.8-0.3-1.3-1.7-2.4-1.1c-0.8,0.4-1.3,1.4-2,2.1c-0.4,0.4-0.8,0.8-1.2,1.1
		C515.8,442.6,514.7,441.9,514.7,440.8z M522.3,431.2c-0.1-0.2-0.1-0.3-0.2-0.4c-0.8-0.7-1.6-1.8-2.6-1.9c-0.8-0.1-1.2,1.1-1.8,1.7
		c-1,0.8-0.6,1.4,0.3,2c0.3,0.2,0.5,0.4,0.7,0.6c0.5,0.3,0.9,1.2,1.6,0.6C521,433,521.8,432.2,522.3,431.2z"/>
	<path fill="#151D38" d="M683.9,552.4c2.1,0,4,1.7,4.1,3.9c0.1,2.2-1.8,4.2-4,4.2c-2.3,0-4-1.6-4-3.8
		C679.9,554.3,681.5,552.5,683.9,552.4z"/>
	<path fill="#151D38" d="M684,580.4c-2.3,0.1-4-1.6-4.1-3.8c-0.1-2.4,1.6-4.2,3.9-4.2c2.3,0,4.2,1.8,4.2,4
		C688,578.6,686.2,580.4,684,580.4z"/>
	<path fill="#151D38" d="M683.9,600.4c-2.2,0-3.9-1.7-4-3.9c0-2.3,1.7-4.2,4-4.2c2.1,0,4,1.9,4.1,4
		C688.1,598.5,686.2,600.4,683.9,600.4z"/>
	<path fill="#151D38" d="M698,463.5c-10.5-0.3-18.9-4.6-25.2-12.8c-0.8-1.1-1.7-1.8-2.9-2.3c-2-0.8-3.9-1.8-5.7-3
		c-0.8-0.5-1.5-1-1.1-2.1c0.3-1,1.1-1,2-1c6.3-0.1,12.1-2.1,17.5-5.1c1.2-0.7,2.4-1.3,3.7-1.8c3.6-1.4,7.1-1.3,10.2,1.1
		c1,0.8,1.7,1,2.9,0.1c3.2-2.6,6.9-2.8,10.6-1.1c2.1,0.9,4.2,2,6.2,3.1c4.5,2.3,9.3,3.5,14.3,3.7c0.3,0,0.6,0,1,0
		c0.7,0,1.3,0.3,1.4,1c0.2,0.7,0,1.3-0.6,1.7c-0.7,0.4-1.3,0.9-2,1.2c-1.1,0.6-2.2,1.3-3.4,1.7c-1.3,0.5-2.3,1.4-3.1,2.5
		c-5.6,7.2-12.9,11.6-22,12.7C700.3,463.4,699.1,463.4,698,463.5z"/>
	<path fill="#FFFFFF" d="M697.9,460.5c6.3-0.1,11.9-1.9,16.9-5.6c1.2-0.9,2.3-2,3.5-2.9c0.2-0.2,0.5-0.5,0.3-0.8
		c-0.1-0.1-0.5-0.1-0.7-0.1c-0.5,0.1-0.9,0.2-1.4,0.3c-6.3,1-12.3,0.5-17.6-3.4c-0.8-0.6-1.3-0.5-2.1,0.1c-3.1,2.3-6.6,3.4-10.5,3.7
		c-2.6,0.2-5.1,0-7.6-0.5c-0.4-0.1-0.9-0.3-1.1,0.1c-0.2,0.4,0.3,0.7,0.6,0.9c0.4,0.5,0.9,0.9,1.4,1.3
		C684.9,458.1,691,460.4,697.9,460.5z"/>
	<path fill="#151D38" d="M658.2,439.4c-3.1,0-5.5-2.3-5.6-5.4c0-3,2.4-5.5,5.5-5.5c3,0,5.4,2.3,5.5,5.3
		C663.7,436.9,661.3,439.4,658.2,439.4z"/>
	<path fill="#151D38" d="M737.5,439.4c-3,0-5.5-2.5-5.4-5.5c0-3,2.5-5.4,5.6-5.4c3,0.1,5.3,2.4,5.3,5.4
		C742.9,437.1,740.6,439.4,737.5,439.4z"/>
	<path fill="#151D38" d="M699.8,432.7c0.1,1.1-1.1,2-2.1,1.4c-2.1-1.3-4.1-2.7-6.1-4.2c-0.8-0.6-0.7-1.7,0.2-2.2
		c2.1-1.2,4.2-2.3,6.3-3.3c0.7-0.3,1.5-0.1,1.8,0.6c0.4,0.8,0.3,1.6-0.5,2.1c-0.7,0.4-1.4,0.8-2.1,1.1c-1.7,0.9-1.7,0.9-0.2,2
		c0.6,0.4,1.2,0.8,1.8,1.2C699.4,431.7,699.7,432.1,699.8,432.7z"/>
	<path fill="#151D38" d="M645.3,430.7c0.2-4.3,3-7.8,6.7-8.9c0.7-0.2,1.4-0.3,2.1-0.3c0.8,0,1.4,0.3,1.6,1.1c0.2,1-0.4,1.5-1.2,1.8
		c-0.3,0.1-0.6,0.1-0.9,0.1c-2.9,0.6-4.8,2.7-5.2,5.5c-0.1,0.5,0,1-0.1,1.4c-0.1,0.9-0.6,1.3-1.5,1.2c-0.9,0-1.3-0.5-1.4-1.3
		C645.3,431.1,645.3,430.7,645.3,430.7z"/>
	<path fill="#151D38" d="M750,430.9c0,0.2,0,0.7-0.2,1.1c-0.3,0.7-0.8,0.9-1.5,0.8c-0.6-0.1-1-0.4-1.1-1c-0.1-0.6-0.1-1.3-0.2-1.9
		c-0.6-2.8-2.3-4.6-5.2-5.3c-0.2-0.1-0.5,0-0.7-0.1c-1-0.2-1.6-0.8-1.4-1.8c0.2-1,1-1.1,1.9-1.1C745.7,421.5,749.9,426,750,430.9z"
		/>
	<path fill="#151D38" d="M881.5,430.8c0.1,1.1-1.1,1.9-2.2,1.4c-0.5-0.3-0.9-0.7-1.3-1.1c-2.9-2.9-5.9-5.8-8.8-8.8
		c-1.4-1.4-1.6-2.3-0.7-3c0.8-0.7,1.6-0.5,2.8,0.8c3,3,6,6,9,9C880.8,429.5,881.4,430,881.5,430.8z"/>
	<path fill="#151D38" d="M880.1,440.5c-0.1,1.1-1.2,1.8-2,1.1c-2.8-2.3-5.3-4.8-7.6-7.6c-0.5-0.6-0.2-1.4,0.4-1.9
		c0.6-0.4,1.2-0.4,1.7,0.1c2.4,2.4,4.8,4.7,7.1,7.1C880.1,439.7,880.2,440.1,880.1,440.5z"/>
	<path fill="#151D38" d="M780.5,450.4c0,4.9-3.9,9-8.4,8.9c-1,0-1.8-0.2-1.9-1.3c0-1.1,0.7-1.5,1.7-1.6c0.3,0,0.6,0,1-0.1
		c2.7-0.6,4.6-2.9,4.6-5.7c0-2.9-1.8-5.2-4.7-5.8c-0.5-0.1-0.9-0.1-1.4-0.2c-0.8-0.2-1.2-0.7-1.2-1.6c0.1-0.9,0.7-1.3,1.4-1.3
		c0.6,0,1.3,0.1,1.9,0.2C777.7,442.7,780.5,446.1,780.5,450.4z"/>
	<path fill="#151D38" d="M615.1,450.4c0-4.6,3.2-8.2,7.8-8.8c0.5-0.1,1-0.1,1.4,0.1c0.7,0.3,1,0.7,1,1.5c0,0.6-0.3,1.1-0.9,1.2
		c-0.5,0.1-1.1,0.2-1.6,0.3c-2.9,0.6-4.7,2.9-4.7,5.8c0,2.8,2,5.2,4.8,5.7c0.4,0.1,0.8,0,1.2,0.1c0.9,0.2,1.3,0.8,1.2,1.8
		c-0.1,0.9-0.8,1.1-1.6,1.1c-4,0.3-8.2-3.3-8.6-7.5C615,451.4,615.1,450.9,615.1,450.4z"/>
	<path fill="#151D38" d="M527.2,812c0,4.2,0,8.5,0,12.7c0,3.1-2.4,5.1-5.3,4.7c-2.2-0.3-3.8-1.8-4.1-4c-0.1-0.6-0.1-1.3-0.1-1.9
		c0-7.6,0-15.2,0-22.8c0-0.5,0-1,0-1.4c0.2-2.9,2.2-4.8,5-4.6c2.7,0.1,4.5,2,4.5,4.9C527.3,803.7,527.2,807.8,527.2,812z"/>
	<path fill="#FFFFFF" d="M524.4,812.1c0-3.8,0-7.5,0-11.3c0-0.6,0-1.1-0.1-1.7c-0.2-0.9-0.7-1.4-1.6-1.5c-1-0.1-1.7,0.4-2,1.4
		c-0.2,0.5-0.2,1.1-0.2,1.7c0,7.6,0,15.2,0,22.8c0,0.3,0,0.6,0,1c0.2,1.5,0.9,2.2,2.1,2.1c1.1-0.1,1.6-0.8,1.8-2.2c0-0.5,0-1,0-1.4
		C524.4,819.3,524.4,815.7,524.4,812.1z"/>
	<path fill="#151D38" d="M505.2,817.3c0,3,0,6.1,0,9.1c0,0.6,0,1.1,0,1.7c-0.1,0.9-0.6,1.3-1.4,1.3c-0.8,0-1.3-0.5-1.4-1.3
		c0-0.3,0-0.6,0-1c0-6.5,0-13.1,0-19.6c0-0.5,0-1,0.1-1.4c0.2-0.7,0.7-1.1,1.4-1.1c0.7,0,1.2,0.4,1.3,1.2c0.1,0.6,0.1,1.1,0.1,1.7
		C505.3,811,505.2,814.2,505.2,817.3z"/>
	<path fill="#151D38" d="M415.6,658.1c-0.1,0.9-0.9,1-1.5,1.3c-0.5,0.3-0.9,0.3-1.2-0.2c-0.3-0.5-0.5-1-0.8-1.5
		c-7.5-13.9-15-27.9-22.4-41.8c-0.2-0.4-0.4-0.9-0.7-1.3c-0.4-0.7,0-1,0.6-1.3c0.6-0.3,1.2-1.1,1.9-0.2c0.3,0.4,0.5,0.8,0.7,1.2
		c1.5,2.7,3,5.5,4.4,8.2c6.1,11.3,12.1,22.5,18.1,33.8C415.1,657,415.4,657.6,415.6,658.1z"/>
	<path fill="#151D38" d="M423.8,637c0.6,0.1,0.8,0.7,1,1.2c2.1,3.9,4.1,7.7,6.2,11.6c1.1,2.1,2.2,4.2,3.4,6.3c0.6,1.1,0.2,1.5-0.7,2
		c-0.9,0.5-1.4,0.3-1.9-0.6c-3.2-6-6.5-12.1-9.7-18.1C421.6,638.4,422.5,637,423.8,637z"/>
	<path fill="#151D38" d="M371.7,640.1c-0.2,9.1-1.9,17.7-7.2,25.4c-1.4,2.1-3.1,3.9-5,5.5c-7.1,5.8-16.1,5.7-23-0.3
		c-3.1-2.6-5.5-5.8-7.2-9.5c-6.3-14.1-6.3-28.2,0.5-42.1c1.4-3,3.4-5.6,5.9-7.8c7.9-7.2,17.9-7,25.5,0.5c4.8,4.8,7.5,10.7,9.1,17.2
		C371.2,632.5,371.5,636.3,371.7,640.1z M368.7,640.5c-0.1-6.5-1.2-12.7-4-18.6c-1.8-3.8-4.2-7.2-7.6-9.7
		c-5.8-4.3-12.2-4.3-17.9,0.1c-3.2,2.5-5.6,5.7-7.3,9.4c-5.5,12.3-5.6,24.8-0.3,37.2c1.7,4,4.2,7.5,7.8,10.2
		c5.6,4.3,12.1,4.3,17.7,0c3-2.3,5.2-5.2,6.9-8.5C367.3,654.3,368.6,647.5,368.7,640.5z"/>
	<path fill="#151D38" d="M957.4,522.5c0,2.8-2.1,5-4.9,5c-2.8,0-5-2.2-5-5c0-2.7,2.1-4.8,4.8-4.9
		C955.2,517.6,957.4,519.7,957.4,522.5z"/>
	<path fill="#151D38" d="M987.7,517.3c0,2.9-2.1,5-4.9,5c-2.8,0-5-2.2-4.9-5c0.1-2.7,2.2-4.8,4.9-4.8
		C985.6,512.3,987.7,514.4,987.7,517.3z"/>
	<path fill="#151D38" d="M998.6,548.9c3,0,4.9,1.9,4.9,4.9c0,2.7-2.1,4.9-4.7,5c-2.8,0.1-5.1-2.1-5.1-4.9
		C993.6,551.1,995.7,548.9,998.6,548.9z"/>
	<path fill="#151D38" d="M949.2,566.6c0,2.9-2,5-4.9,5c-2.8,0-5.1-2.2-5.1-4.9c0-2.7,2.2-4.8,4.9-4.9
		C946.9,561.7,949.2,563.8,949.2,566.6z"/>
	<path fill="#151D38" d="M361.4,640.3c-0.1,5-0.8,9.5-2.7,13.9c-0.9,2.1-2.1,3.9-3.7,5.6c-4.2,4.2-9.6,4.2-13.8-0.1
		c-2.7-2.8-4.2-6.2-5.1-9.9c-1.8-6.9-1.6-13.8,0.7-20.5c1-3.1,2.6-6,5.1-8.3c3.8-3.5,8.9-3.5,12.7,0.1c3.4,3.2,5,7.3,6,11.8
		C361.2,635.4,361.4,638,361.4,640.3z M338,640.8c0.1,2.9,0.4,6.2,1.4,9.4c0.8,2.6,2,5.1,3.9,7.1c3.1,3.3,6.6,3.4,9.8,0.2
		c1.3-1.3,2.3-2.9,3-4.6c3.4-8.3,3.3-16.6-0.1-24.9c-0.9-2.1-2.2-3.9-4-5.3c-2.4-1.8-5.1-1.8-7.5,0.1c-1.4,1.1-2.4,2.5-3.3,4.1
		C338.9,631.1,338.1,635.6,338,640.8z"/>
</g>
</svg>
